<?xml version="1.0" encoding="UTF-8" standalone="no"?>
<svg
   xmlns:dc="http://purl.org/dc/elements/1.1/"
   xmlns:cc="http://creativecommons.org/ns#"
   xmlns:rdf="http://www.w3.org/1999/02/22-rdf-syntax-ns#"
   xmlns:svg="http://www.w3.org/2000/svg"
   xmlns="http://www.w3.org/2000/svg"
   xmlns:sodipodi="http://sodipodi.sourceforge.net/DTD/sodipodi-0.dtd"
   xmlns:inkscape="http://www.inkscape.org/namespaces/inkscape"
   width="4322.8345"
   height="2161.4172"
   id="svg3004"
   version="1.1"
   inkscape:version="0.92.3 (2405546, 2018-03-11)"
   sodipodi:docname="alice_blade.svg">
  <metadata
     id="metadata3829">
    <rdf:RDF>
      <cc:Work
         rdf:about="">
        <dc:format>image/svg+xml</dc:format>
        <dc:type
           rdf:resource="http://purl.org/dc/dcmitype/StillImage" />
        <dc:title />
      </cc:Work>
    </rdf:RDF>
  </metadata>
  <sodipodi:namedview
     pagecolor="#ffffff"
     bordercolor="#666666"
     borderopacity="1"
     objecttolerance="10"
     gridtolerance="10"
     guidetolerance="10"
     inkscape:pageopacity="0"
     inkscape:pageshadow="2"
     inkscape:window-width="1024"
     inkscape:window-height="717"
     id="namedview3827"
     showgrid="false"
     inkscape:zoom="0.64"
     inkscape:cx="1657.9233"
     inkscape:cy="1852.9923"
     inkscape:window-x="0"
     inkscape:window-y="0"
     inkscape:window-maximized="1"
     inkscape:current-layer="g3023"
     units="mm" />
  <desc
     id="desc3006">/home/chris/Downloads/FII9RI0IDZSH91H.dxf - scale = 1.105263</desc>
  <defs
     id="defs3008">
    <marker
       id="DistanceX"
       orient="auto"
       refX="0"
       refY="0"
       style="overflow:visible">
      <path
         d="M 3,-3 -3,3 M 0,-5 0,5"
         style="stroke:#000000;stroke-width:0.5"
         id="path3011"
         inkscape:connector-curvature="0" />
    </marker>
    <pattern
       height="8"
       id="Hatch"
       patternUnits="userSpaceOnUse"
       width="8"
       x="0"
       y="0">
      <path
         d="M8 4 l-4,4"
         linecap="square"
         stroke="#000000"
         stroke-width="0.25"
         id="path3014" />
      <path
         d="M6 2 l-4,4"
         linecap="square"
         stroke="#000000"
         stroke-width="0.25"
         id="path3016" />
      <path
         d="M4 0 l-4,4"
         linecap="square"
         stroke="#000000"
         stroke-width="0.25"
         id="path3018" />
    </pattern>
    <symbol
       id="*Model_Space" />
    <symbol
       id="*Paper_Space" />
    <symbol
       id="*Paper_Space0" />
    <symbol
       id="*U3">
      <path
         id="path5440"
         style="fill:none;stroke:#000000"
         d="m 138.18898,1070.0787 0,-17.7165"
         inkscape:connector-curvature="0" />
      <path
         id="path5442"
         style="fill:none;stroke:#000000"
         d="m 120.47244,1034.6457 -240.94488,0"
         inkscape:connector-curvature="0" />
      <path
         id="path5444"
         style="fill:none;stroke:#000000"
         d="m 138.18898,1070.0787 -276.37796,0"
         inkscape:connector-curvature="0" />
      <path
         id="path5446"
         style="fill:none;stroke:#000000"
         d="m 138.18898,1052.3622 a 17.716535,17.716535 0 0 0 -17.71654,-17.7165"
         inkscape:connector-curvature="0" />
      <path
         id="path5448"
         style="fill:none;stroke:#000000"
         d="m -120.47244,1034.6457 a 17.716535,17.716535 0 0 0 -17.71654,17.7165"
         inkscape:connector-curvature="0" />
      <path
         id="path5450"
         style="fill:none;stroke:#000000"
         d="m -138.18898,1052.3622 0,17.7165"
         inkscape:connector-curvature="0" />
      <path
         id="path5452"
         style="fill:none;stroke:#000000"
         d="m -113.38583,1052.3622 a 7.086615,7.086615 0 1 0 -14.17323,0 7.086615,7.086615 0 1 0 14.17323,0 z"
         inkscape:connector-curvature="0" />
      <path
         id="path5454"
         style="fill:none;stroke:#000000"
         d="m 127.55906,1052.3622 a 7.086615,7.086615 0 1 0 -14.17323,0 7.086615,7.086615 0 1 0 14.17323,0 z"
         inkscape:connector-curvature="0" />
    </symbol>
    <symbol
       id="*U1">
      <path
         id="path5423"
         style="fill:none;stroke:#000000"
         d="m 138.18898,1070.0787 0,-17.7165"
         inkscape:connector-curvature="0" />
      <path
         id="path5425"
         style="fill:none;stroke:#000000"
         d="m 120.47244,1034.6457 -240.94488,0"
         inkscape:connector-curvature="0" />
      <path
         id="path5427"
         style="fill:none;stroke:#000000"
         d="m 138.18898,1070.0787 -276.37796,0"
         inkscape:connector-curvature="0" />
      <path
         id="path5429"
         style="fill:none;stroke:#000000"
         d="m 138.18898,1052.3622 a 17.716535,17.716535 0 0 0 -17.71654,-17.7165"
         inkscape:connector-curvature="0" />
      <path
         id="path5431"
         style="fill:none;stroke:#000000"
         d="m -120.47244,1034.6457 a 17.716535,17.716535 0 0 0 -17.71654,17.7165"
         inkscape:connector-curvature="0" />
      <path
         id="path5433"
         style="fill:none;stroke:#000000"
         d="m -138.18898,1052.3622 0,17.7165"
         inkscape:connector-curvature="0" />
      <path
         id="path5435"
         style="fill:none;stroke:#000000"
         d="m -113.38583,1052.3622 a 7.086615,7.086615 0 1 0 -14.17323,0 7.086615,7.086615 0 1 0 14.17323,0 z"
         inkscape:connector-curvature="0" />
      <path
         id="path5437"
         style="fill:none;stroke:#000000"
         d="m 127.55906,1052.3622 a 7.086615,7.086615 0 1 0 -14.17323,0 7.086615,7.086615 0 1 0 14.17323,0 z"
         inkscape:connector-curvature="0" />
    </symbol>
    <symbol
       id="$PAPER_SPACE" />
    <symbol
       id="$MODEL_SPACE" />
    <pattern
       y="0"
       x="0"
       width="8"
       patternUnits="userSpaceOnUse"
       id="Hatch-5"
       height="8">
      <path
         id="path5414"
         stroke-width="0.25"
         stroke="#000000"
         linecap="square"
         d="M8 4 l-4,4" />
      <path
         id="path5416"
         stroke-width="0.25"
         stroke="#000000"
         linecap="square"
         d="M6 2 l-4,4" />
      <path
         id="path5418"
         stroke-width="0.25"
         stroke="#000000"
         linecap="square"
         d="M4 0 l-4,4" />
    </pattern>
    <marker
       style="overflow:visible"
       refY="0"
       refX="0"
       orient="auto"
       id="DistanceX-3">
      <path
         id="path5411"
         style="stroke:#000000;stroke-width:0.5"
         d="M 3,-3 -3,3 M 0,-5 0,5"
         inkscape:connector-curvature="0" />
    </marker>
    <symbol
       id="*U3-7">
      <path
         id="path6198"
         style="fill:none;stroke:#000000"
         d="m 13.818898,1054.1339 0,-1.7717"
         inkscape:connector-curvature="0" />
      <path
         id="path6200"
         style="fill:none;stroke:#000000"
         d="m 12.047244,1050.5906 -24.094488,0"
         inkscape:connector-curvature="0" />
      <path
         id="path6202"
         style="fill:none;stroke:#000000"
         d="m 13.818898,1054.1339 -27.637796,0"
         inkscape:connector-curvature="0" />
      <path
         id="path6204"
         style="fill:none;stroke:#000000"
         d="m 13.818898,1052.3622 a 1.771654,1.771654 0 0 0 -1.771654,-1.7716"
         inkscape:connector-curvature="0" />
      <path
         id="path6206"
         style="fill:none;stroke:#000000"
         d="m -12.047244,1050.5906 a 1.771654,1.771654 0 0 0 -1.771654,1.7716"
         inkscape:connector-curvature="0" />
      <path
         id="path6208"
         style="fill:none;stroke:#000000"
         d="m -13.818898,1052.3622 0,1.7717"
         inkscape:connector-curvature="0" />
      <path
         id="path6210"
         style="fill:none;stroke:#000000"
         d="m -11.338583,1052.3622 a 0.7086615,0.7086615 0 1 0 -1.417323,0 0.7086615,0.7086615 0 1 0 1.417323,0 z"
         inkscape:connector-curvature="0" />
      <path
         id="path6212"
         style="fill:none;stroke:#000000"
         d="m 12.755906,1052.3622 a 0.7086615,0.7086615 0 1 0 -1.417323,0 0.7086615,0.7086615 0 1 0 1.417323,0 z"
         inkscape:connector-curvature="0" />
    </symbol>
    <symbol
       id="*U1-2">
      <path
         id="path6181"
         style="fill:none;stroke:#000000"
         d="m 13.818898,1054.1339 0,-1.7717"
         inkscape:connector-curvature="0" />
      <path
         id="path6183"
         style="fill:none;stroke:#000000"
         d="m 12.047244,1050.5906 -24.094488,0"
         inkscape:connector-curvature="0" />
      <path
         id="path6185"
         style="fill:none;stroke:#000000"
         d="m 13.818898,1054.1339 -27.637796,0"
         inkscape:connector-curvature="0" />
      <path
         id="path6187"
         style="fill:none;stroke:#000000"
         d="m 13.818898,1052.3622 a 1.771654,1.771654 0 0 0 -1.771654,-1.7716"
         inkscape:connector-curvature="0" />
      <path
         id="path6189"
         style="fill:none;stroke:#000000"
         d="m -12.047244,1050.5906 a 1.771654,1.771654 0 0 0 -1.771654,1.7716"
         inkscape:connector-curvature="0" />
      <path
         id="path6191"
         style="fill:none;stroke:#000000"
         d="m -13.818898,1052.3622 0,1.7717"
         inkscape:connector-curvature="0" />
      <path
         id="path6193"
         style="fill:none;stroke:#000000"
         d="m -11.338583,1052.3622 a 0.7086615,0.7086615 0 1 0 -1.417323,0 0.7086615,0.7086615 0 1 0 1.417323,0 z"
         inkscape:connector-curvature="0" />
      <path
         id="path6195"
         style="fill:none;stroke:#000000"
         d="m 12.755906,1052.3622 a 0.7086615,0.7086615 0 1 0 -1.417323,0 0.7086615,0.7086615 0 1 0 1.417323,0 z"
         inkscape:connector-curvature="0" />
    </symbol>
    <symbol
       id="$PAPER_SPACE-1" />
    <symbol
       id="$MODEL_SPACE-9" />
    <pattern
       y="0"
       x="0"
       width="8"
       patternUnits="userSpaceOnUse"
       id="Hatch-2"
       height="8">
      <path
         id="path6172"
         stroke-width="0.25"
         stroke="#000000"
         linecap="square"
         d="M8 4 l-4,4" />
      <path
         id="path6174"
         stroke-width="0.25"
         stroke="#000000"
         linecap="square"
         d="M6 2 l-4,4" />
      <path
         id="path6176"
         stroke-width="0.25"
         stroke="#000000"
         linecap="square"
         d="M4 0 l-4,4" />
    </pattern>
    <marker
       style="overflow:visible"
       refY="0"
       refX="0"
       orient="auto"
       id="DistanceX-6">
      <path
         id="path6169"
         style="stroke:#000000;stroke-width:0.5"
         d="M 3,-3 -3,3 M 0,-5 0,5"
         inkscape:connector-curvature="0" />
    </marker>
    <symbol
       id="*U3-6">
      <path
         id="path6956"
         style="fill:none;stroke:#000000"
         d="m 27.637795,1055.9055 0,-3.5433"
         inkscape:connector-curvature="0" />
      <path
         id="path6958"
         style="fill:none;stroke:#000000"
         d="m 24.094488,1048.8189 -48.188976,0"
         inkscape:connector-curvature="0" />
      <path
         id="path6960"
         style="fill:none;stroke:#000000"
         d="m 27.637795,1055.9055 -55.27559,0"
         inkscape:connector-curvature="0" />
      <path
         id="path6962"
         style="fill:none;stroke:#000000"
         d="m 27.637795,1052.3622 a 3.543307,3.543307 0 0 0 -3.543307,-3.5433"
         inkscape:connector-curvature="0" />
      <path
         id="path6964"
         style="fill:none;stroke:#000000"
         d="m -24.094488,1048.8189 a 3.543307,3.543307 0 0 0 -3.543307,3.5433"
         inkscape:connector-curvature="0" />
      <path
         id="path6966"
         style="fill:none;stroke:#000000"
         d="m -27.637795,1052.3622 0,3.5433"
         inkscape:connector-curvature="0" />
      <path
         id="path6968"
         style="fill:none;stroke:#000000"
         d="m -22.677165,1052.3622 a 1.417323,1.417323 0 1 0 -2.834646,0 1.417323,1.417323 0 1 0 2.834646,0 z"
         inkscape:connector-curvature="0" />
      <path
         id="path6970"
         style="fill:none;stroke:#000000"
         d="m 25.511811,1052.3622 a 1.417323,1.417323 0 1 0 -2.834646,0 1.417323,1.417323 0 1 0 2.834646,0 z"
         inkscape:connector-curvature="0" />
    </symbol>
    <symbol
       id="*U1-0">
      <path
         id="path6939"
         style="fill:none;stroke:#000000"
         d="m 27.637795,1055.9055 0,-3.5433"
         inkscape:connector-curvature="0" />
      <path
         id="path6941"
         style="fill:none;stroke:#000000"
         d="m 24.094488,1048.8189 -48.188976,0"
         inkscape:connector-curvature="0" />
      <path
         id="path6943"
         style="fill:none;stroke:#000000"
         d="m 27.637795,1055.9055 -55.27559,0"
         inkscape:connector-curvature="0" />
      <path
         id="path6945"
         style="fill:none;stroke:#000000"
         d="m 27.637795,1052.3622 a 3.543307,3.543307 0 0 0 -3.543307,-3.5433"
         inkscape:connector-curvature="0" />
      <path
         id="path6947"
         style="fill:none;stroke:#000000"
         d="m -24.094488,1048.8189 a 3.543307,3.543307 0 0 0 -3.543307,3.5433"
         inkscape:connector-curvature="0" />
      <path
         id="path6949"
         style="fill:none;stroke:#000000"
         d="m -27.637795,1052.3622 0,3.5433"
         inkscape:connector-curvature="0" />
      <path
         id="path6951"
         style="fill:none;stroke:#000000"
         d="m -22.677165,1052.3622 a 1.417323,1.417323 0 1 0 -2.834646,0 1.417323,1.417323 0 1 0 2.834646,0 z"
         inkscape:connector-curvature="0" />
      <path
         id="path6953"
         style="fill:none;stroke:#000000"
         d="m 25.511811,1052.3622 a 1.417323,1.417323 0 1 0 -2.834646,0 1.417323,1.417323 0 1 0 2.834646,0 z"
         inkscape:connector-curvature="0" />
    </symbol>
    <symbol
       id="$PAPER_SPACE-6" />
    <symbol
       id="$MODEL_SPACE-3" />
    <pattern
       y="0"
       x="0"
       width="8"
       patternUnits="userSpaceOnUse"
       id="Hatch-9"
       height="8">
      <path
         id="path6930"
         stroke-width="0.25"
         stroke="#000000"
         linecap="square"
         d="M8 4 l-4,4" />
      <path
         id="path6932"
         stroke-width="0.25"
         stroke="#000000"
         linecap="square"
         d="M6 2 l-4,4" />
      <path
         id="path6934"
         stroke-width="0.25"
         stroke="#000000"
         linecap="square"
         d="M4 0 l-4,4" />
    </pattern>
    <marker
       style="overflow:visible"
       refY="0"
       refX="0"
       orient="auto"
       id="DistanceX-0">
      <path
         id="path6927"
         style="stroke:#000000;stroke-width:0.5"
         d="M 3,-3 -3,3 M 0,-5 0,5"
         inkscape:connector-curvature="0" />
    </marker>
    <symbol
       id="*U3-9">
      <path
         id="path7714"
         style="stroke:#000000;fill:none"
         d="M 138.188976,1070.078740 138.188976,1052.362205" />
      <path
         id="path7716"
         style="stroke:#000000;fill:none"
         d="M 120.472441,1034.645669 -120.472441,1034.645669" />
      <path
         id="path7718"
         style="stroke:#000000;fill:none"
         d="M 138.188976,1070.078740 -138.188976,1070.078740" />
      <path
         id="path7720"
         style="stroke:#000000;fill:none"
         d="M 138.188976,1052.362205 A 17.716535,17.716535 -0.000000 0 0 120.472441,1034.645669" />
      <path
         id="path7722"
         style="stroke:#000000;fill:none"
         d="M -120.472441,1034.645669 A 17.716535,17.716535 -0.000000 0 0 -138.188976,1052.362205" />
      <path
         id="path7724"
         style="stroke:#000000;fill:none"
         d="M -138.188976,1052.362205 -138.188976,1070.078740" />
      <path
         id="path7726"
         style="stroke:#000000;fill:none"
         d="M -113.385827,1052.362205 A 7.086614,7.086614 -0.000000 1 0 -127.559055,1052.362205 7.086614,7.086614 -0.000000 1 0 -113.385827,1052.362205 z" />
      <path
         id="path7728"
         style="stroke:#000000;fill:none"
         d="M 127.559055,1052.362205 A 7.086614,7.086614 -0.000000 1 0 113.385827,1052.362205 7.086614,7.086614 -0.000000 1 0 127.559055,1052.362205 z" />
    </symbol>
    <symbol
       id="*U1-7">
      <path
         id="path7697"
         style="stroke:#000000;fill:none"
         d="M 138.188976,1070.078740 138.188976,1052.362205" />
      <path
         id="path7699"
         style="stroke:#000000;fill:none"
         d="M 120.472441,1034.645669 -120.472441,1034.645669" />
      <path
         id="path7701"
         style="stroke:#000000;fill:none"
         d="M 138.188976,1070.078740 -138.188976,1070.078740" />
      <path
         id="path7703"
         style="stroke:#000000;fill:none"
         d="M 138.188976,1052.362205 A 17.716535,17.716535 -0.000000 0 0 120.472441,1034.645669" />
      <path
         id="path7705"
         style="stroke:#000000;fill:none"
         d="M -120.472441,1034.645669 A 17.716535,17.716535 -0.000000 0 0 -138.188976,1052.362205" />
      <path
         id="path7707"
         style="stroke:#000000;fill:none"
         d="M -138.188976,1052.362205 -138.188976,1070.078740" />
      <path
         id="path7709"
         style="stroke:#000000;fill:none"
         d="M -113.385827,1052.362205 A 7.086614,7.086614 -0.000000 1 0 -127.559055,1052.362205 7.086614,7.086614 -0.000000 1 0 -113.385827,1052.362205 z" />
      <path
         id="path7711"
         style="stroke:#000000;fill:none"
         d="M 127.559055,1052.362205 A 7.086614,7.086614 -0.000000 1 0 113.385827,1052.362205 7.086614,7.086614 -0.000000 1 0 127.559055,1052.362205 z" />
    </symbol>
    <symbol
       id="$PAPER_SPACE-8" />
    <symbol
       id="$MODEL_SPACE-1" />
    <pattern
       y="0"
       x="0"
       width="8"
       patternUnits="userSpaceOnUse"
       id="Hatch-6"
       height="8">
      <path
         id="path7688"
         stroke-width="0.25"
         stroke="#000000"
         linecap="square"
         d="M8 4 l-4,4" />
      <path
         id="path7690"
         stroke-width="0.25"
         stroke="#000000"
         linecap="square"
         d="M6 2 l-4,4" />
      <path
         id="path7692"
         stroke-width="0.25"
         stroke="#000000"
         linecap="square"
         d="M4 0 l-4,4" />
    </pattern>
    <marker
       style="overflow:visible"
       refY="0.0"
       refX="0.0"
       orient="auto"
       id="DistanceX-2">
      <path
         id="path7685"
         style="stroke:#000000; stroke-width:0.5"
         d="M 3,-3 L -3,3 M 0,-5 L  0,5" />
    </marker>
    <marker
       style="overflow:visible"
       refY="0"
       refX="0"
       orient="auto"
       id="DistanceX-5">
      <path
         inkscape:connector-curvature="0"
         id="path3011-6"
         style="stroke:#000000;stroke-width:0.5"
         d="M 3,-3 -3,3 M 0,-5 0,5" />
    </marker>
    <pattern
       y="0"
       x="0"
       width="8"
       patternUnits="userSpaceOnUse"
       id="Hatch-29"
       height="8">
      <path
         id="path3014-1"
         stroke-width="0.25"
         stroke="#000000"
         linecap="square"
         d="M8 4 l-4,4" />
      <path
         id="path3016-2"
         stroke-width="0.25"
         stroke="#000000"
         linecap="square"
         d="M6 2 l-4,4" />
      <path
         id="path3018-7"
         stroke-width="0.25"
         stroke="#000000"
         linecap="square"
         d="M4 0 l-4,4" />
    </pattern>
    <symbol
       id="*Model_Space-0" />
    <symbol
       id="*Paper_Space-9" />
    <symbol
       id="*Paper_Space0-3" />
    <symbol
       id="*U3-60">
      <path
         inkscape:connector-curvature="0"
         d="m 138.18898,1070.0787 0,-17.7165"
         style="fill:none;stroke:#000000"
         id="path5440-6" />
      <path
         inkscape:connector-curvature="0"
         d="m 120.47244,1034.6457 -240.94488,0"
         style="fill:none;stroke:#000000"
         id="path5442-2" />
      <path
         inkscape:connector-curvature="0"
         d="m 138.18898,1070.0787 -276.37796,0"
         style="fill:none;stroke:#000000"
         id="path5444-6" />
      <path
         inkscape:connector-curvature="0"
         d="m 138.18898,1052.3622 a 17.716535,17.716535 0 0 0 -17.71654,-17.7165"
         style="fill:none;stroke:#000000"
         id="path5446-1" />
      <path
         inkscape:connector-curvature="0"
         d="m -120.47244,1034.6457 a 17.716535,17.716535 0 0 0 -17.71654,17.7165"
         style="fill:none;stroke:#000000"
         id="path5448-8" />
      <path
         inkscape:connector-curvature="0"
         d="m -138.18898,1052.3622 0,17.7165"
         style="fill:none;stroke:#000000"
         id="path5450-7" />
      <path
         inkscape:connector-curvature="0"
         d="m -113.38583,1052.3622 a 7.086615,7.086615 0 1 0 -14.17323,0 7.086615,7.086615 0 1 0 14.17323,0 z"
         style="fill:none;stroke:#000000"
         id="path5452-9" />
      <path
         inkscape:connector-curvature="0"
         d="m 127.55906,1052.3622 a 7.086615,7.086615 0 1 0 -14.17323,0 7.086615,7.086615 0 1 0 14.17323,0 z"
         style="fill:none;stroke:#000000"
         id="path5454-2" />
    </symbol>
    <symbol
       id="*U1-02">
      <path
         inkscape:connector-curvature="0"
         d="m 138.18898,1070.0787 0,-17.7165"
         style="fill:none;stroke:#000000"
         id="path5423-3" />
      <path
         inkscape:connector-curvature="0"
         d="m 120.47244,1034.6457 -240.94488,0"
         style="fill:none;stroke:#000000"
         id="path5425-7" />
      <path
         inkscape:connector-curvature="0"
         d="m 138.18898,1070.0787 -276.37796,0"
         style="fill:none;stroke:#000000"
         id="path5427-5" />
      <path
         inkscape:connector-curvature="0"
         d="m 138.18898,1052.3622 a 17.716535,17.716535 0 0 0 -17.71654,-17.7165"
         style="fill:none;stroke:#000000"
         id="path5429-9" />
      <path
         inkscape:connector-curvature="0"
         d="m -120.47244,1034.6457 a 17.716535,17.716535 0 0 0 -17.71654,17.7165"
         style="fill:none;stroke:#000000"
         id="path5431-2" />
      <path
         inkscape:connector-curvature="0"
         d="m -138.18898,1052.3622 0,17.7165"
         style="fill:none;stroke:#000000"
         id="path5433-2" />
      <path
         inkscape:connector-curvature="0"
         d="m -113.38583,1052.3622 a 7.086615,7.086615 0 1 0 -14.17323,0 7.086615,7.086615 0 1 0 14.17323,0 z"
         style="fill:none;stroke:#000000"
         id="path5435-8" />
      <path
         inkscape:connector-curvature="0"
         d="m 127.55906,1052.3622 a 7.086615,7.086615 0 1 0 -14.17323,0 7.086615,7.086615 0 1 0 14.17323,0 z"
         style="fill:none;stroke:#000000"
         id="path5437-9" />
    </symbol>
    <symbol
       id="$PAPER_SPACE-7" />
    <symbol
       id="$MODEL_SPACE-36" />
    <pattern
       height="8"
       id="Hatch-5-1"
       patternUnits="userSpaceOnUse"
       width="8"
       x="0"
       y="0">
      <path
         d="M8 4 l-4,4"
         linecap="square"
         stroke="#000000"
         stroke-width="0.25"
         id="path5414-2" />
      <path
         d="M6 2 l-4,4"
         linecap="square"
         stroke="#000000"
         stroke-width="0.25"
         id="path5416-9" />
      <path
         d="M4 0 l-4,4"
         linecap="square"
         stroke="#000000"
         stroke-width="0.25"
         id="path5418-3" />
    </pattern>
    <marker
       id="DistanceX-3-1"
       orient="auto"
       refX="0"
       refY="0"
       style="overflow:visible">
      <path
         inkscape:connector-curvature="0"
         d="M 3,-3 -3,3 M 0,-5 0,5"
         style="stroke:#000000;stroke-width:0.5"
         id="path5411-9" />
    </marker>
    <symbol
       id="*U3-7-4">
      <path
         inkscape:connector-curvature="0"
         d="m 13.818898,1054.1339 0,-1.7717"
         style="fill:none;stroke:#000000"
         id="path6198-7" />
      <path
         inkscape:connector-curvature="0"
         d="m 12.047244,1050.5906 -24.094488,0"
         style="fill:none;stroke:#000000"
         id="path6200-8" />
      <path
         inkscape:connector-curvature="0"
         d="m 13.818898,1054.1339 -27.637796,0"
         style="fill:none;stroke:#000000"
         id="path6202-4" />
      <path
         inkscape:connector-curvature="0"
         d="m 13.818898,1052.3622 a 1.771654,1.771654 0 0 0 -1.771654,-1.7716"
         style="fill:none;stroke:#000000"
         id="path6204-5" />
      <path
         inkscape:connector-curvature="0"
         d="m -12.047244,1050.5906 a 1.771654,1.771654 0 0 0 -1.771654,1.7716"
         style="fill:none;stroke:#000000"
         id="path6206-0" />
      <path
         inkscape:connector-curvature="0"
         d="m -13.818898,1052.3622 0,1.7717"
         style="fill:none;stroke:#000000"
         id="path6208-3" />
      <path
         inkscape:connector-curvature="0"
         d="m -11.338583,1052.3622 a 0.7086615,0.7086615 0 1 0 -1.417323,0 0.7086615,0.7086615 0 1 0 1.417323,0 z"
         style="fill:none;stroke:#000000"
         id="path6210-6" />
      <path
         inkscape:connector-curvature="0"
         d="m 12.755906,1052.3622 a 0.7086615,0.7086615 0 1 0 -1.417323,0 0.7086615,0.7086615 0 1 0 1.417323,0 z"
         style="fill:none;stroke:#000000"
         id="path6212-1" />
    </symbol>
    <symbol
       id="*U1-2-0">
      <path
         inkscape:connector-curvature="0"
         d="m 13.818898,1054.1339 0,-1.7717"
         style="fill:none;stroke:#000000"
         id="path6181-6" />
      <path
         inkscape:connector-curvature="0"
         d="m 12.047244,1050.5906 -24.094488,0"
         style="fill:none;stroke:#000000"
         id="path6183-3" />
      <path
         inkscape:connector-curvature="0"
         d="m 13.818898,1054.1339 -27.637796,0"
         style="fill:none;stroke:#000000"
         id="path6185-2" />
      <path
         inkscape:connector-curvature="0"
         d="m 13.818898,1052.3622 a 1.771654,1.771654 0 0 0 -1.771654,-1.7716"
         style="fill:none;stroke:#000000"
         id="path6187-0" />
      <path
         inkscape:connector-curvature="0"
         d="m -12.047244,1050.5906 a 1.771654,1.771654 0 0 0 -1.771654,1.7716"
         style="fill:none;stroke:#000000"
         id="path6189-6" />
      <path
         inkscape:connector-curvature="0"
         d="m -13.818898,1052.3622 0,1.7717"
         style="fill:none;stroke:#000000"
         id="path6191-1" />
      <path
         inkscape:connector-curvature="0"
         d="m -11.338583,1052.3622 a 0.7086615,0.7086615 0 1 0 -1.417323,0 0.7086615,0.7086615 0 1 0 1.417323,0 z"
         style="fill:none;stroke:#000000"
         id="path6193-5" />
      <path
         inkscape:connector-curvature="0"
         d="m 12.755906,1052.3622 a 0.7086615,0.7086615 0 1 0 -1.417323,0 0.7086615,0.7086615 0 1 0 1.417323,0 z"
         style="fill:none;stroke:#000000"
         id="path6195-5" />
    </symbol>
    <symbol
       id="$PAPER_SPACE-1-4" />
    <symbol
       id="$MODEL_SPACE-9-7" />
    <pattern
       height="8"
       id="Hatch-2-6"
       patternUnits="userSpaceOnUse"
       width="8"
       x="0"
       y="0">
      <path
         d="M8 4 l-4,4"
         linecap="square"
         stroke="#000000"
         stroke-width="0.25"
         id="path6172-5" />
      <path
         d="M6 2 l-4,4"
         linecap="square"
         stroke="#000000"
         stroke-width="0.25"
         id="path6174-6" />
      <path
         d="M4 0 l-4,4"
         linecap="square"
         stroke="#000000"
         stroke-width="0.25"
         id="path6176-9" />
    </pattern>
    <marker
       id="DistanceX-6-3"
       orient="auto"
       refX="0"
       refY="0"
       style="overflow:visible">
      <path
         inkscape:connector-curvature="0"
         d="M 3,-3 -3,3 M 0,-5 0,5"
         style="stroke:#000000;stroke-width:0.5"
         id="path6169-7" />
    </marker>
    <symbol
       id="*U3-6-4">
      <path
         inkscape:connector-curvature="0"
         d="m 27.637795,1055.9055 0,-3.5433"
         style="fill:none;stroke:#000000"
         id="path6956-5" />
      <path
         inkscape:connector-curvature="0"
         d="m 24.094488,1048.8189 -48.188976,0"
         style="fill:none;stroke:#000000"
         id="path6958-2" />
      <path
         inkscape:connector-curvature="0"
         d="m 27.637795,1055.9055 -55.27559,0"
         style="fill:none;stroke:#000000"
         id="path6960-5" />
      <path
         inkscape:connector-curvature="0"
         d="m 27.637795,1052.3622 a 3.543307,3.543307 0 0 0 -3.543307,-3.5433"
         style="fill:none;stroke:#000000"
         id="path6962-4" />
      <path
         inkscape:connector-curvature="0"
         d="m -24.094488,1048.8189 a 3.543307,3.543307 0 0 0 -3.543307,3.5433"
         style="fill:none;stroke:#000000"
         id="path6964-7" />
      <path
         inkscape:connector-curvature="0"
         d="m -27.637795,1052.3622 0,3.5433"
         style="fill:none;stroke:#000000"
         id="path6966-4" />
      <path
         inkscape:connector-curvature="0"
         d="m -22.677165,1052.3622 a 1.417323,1.417323 0 1 0 -2.834646,0 1.417323,1.417323 0 1 0 2.834646,0 z"
         style="fill:none;stroke:#000000"
         id="path6968-4" />
      <path
         inkscape:connector-curvature="0"
         d="m 25.511811,1052.3622 a 1.417323,1.417323 0 1 0 -2.834646,0 1.417323,1.417323 0 1 0 2.834646,0 z"
         style="fill:none;stroke:#000000"
         id="path6970-3" />
    </symbol>
    <symbol
       id="*U1-0-0">
      <path
         inkscape:connector-curvature="0"
         d="m 27.637795,1055.9055 0,-3.5433"
         style="fill:none;stroke:#000000"
         id="path6939-7" />
      <path
         inkscape:connector-curvature="0"
         d="m 24.094488,1048.8189 -48.188976,0"
         style="fill:none;stroke:#000000"
         id="path6941-8" />
      <path
         inkscape:connector-curvature="0"
         d="m 27.637795,1055.9055 -55.27559,0"
         style="fill:none;stroke:#000000"
         id="path6943-6" />
      <path
         inkscape:connector-curvature="0"
         d="m 27.637795,1052.3622 a 3.543307,3.543307 0 0 0 -3.543307,-3.5433"
         style="fill:none;stroke:#000000"
         id="path6945-8" />
      <path
         inkscape:connector-curvature="0"
         d="m -24.094488,1048.8189 a 3.543307,3.543307 0 0 0 -3.543307,3.5433"
         style="fill:none;stroke:#000000"
         id="path6947-8" />
      <path
         inkscape:connector-curvature="0"
         d="m -27.637795,1052.3622 0,3.5433"
         style="fill:none;stroke:#000000"
         id="path6949-4" />
      <path
         inkscape:connector-curvature="0"
         d="m -22.677165,1052.3622 a 1.417323,1.417323 0 1 0 -2.834646,0 1.417323,1.417323 0 1 0 2.834646,0 z"
         style="fill:none;stroke:#000000"
         id="path6951-3" />
      <path
         inkscape:connector-curvature="0"
         d="m 25.511811,1052.3622 a 1.417323,1.417323 0 1 0 -2.834646,0 1.417323,1.417323 0 1 0 2.834646,0 z"
         style="fill:none;stroke:#000000"
         id="path6953-1" />
    </symbol>
    <symbol
       id="$PAPER_SPACE-6-4" />
    <symbol
       id="$MODEL_SPACE-3-9" />
    <pattern
       height="8"
       id="Hatch-9-2"
       patternUnits="userSpaceOnUse"
       width="8"
       x="0"
       y="0">
      <path
         d="M8 4 l-4,4"
         linecap="square"
         stroke="#000000"
         stroke-width="0.25"
         id="path6930-0" />
      <path
         d="M6 2 l-4,4"
         linecap="square"
         stroke="#000000"
         stroke-width="0.25"
         id="path6932-6" />
      <path
         d="M4 0 l-4,4"
         linecap="square"
         stroke="#000000"
         stroke-width="0.25"
         id="path6934-8" />
    </pattern>
    <marker
       id="DistanceX-0-9"
       orient="auto"
       refX="0"
       refY="0"
       style="overflow:visible">
      <path
         inkscape:connector-curvature="0"
         d="M 3,-3 -3,3 M 0,-5 0,5"
         style="stroke:#000000;stroke-width:0.5"
         id="path6927-2" />
    </marker>
    <symbol
       id="*U3-9-6">
      <path
         d="M 138.188976,1070.078740 138.188976,1052.362205"
         style="stroke:#000000;fill:none"
         id="path7714-6" />
      <path
         d="M 120.472441,1034.645669 -120.472441,1034.645669"
         style="stroke:#000000;fill:none"
         id="path7716-4" />
      <path
         d="M 138.188976,1070.078740 -138.188976,1070.078740"
         style="stroke:#000000;fill:none"
         id="path7718-9" />
      <path
         d="M 138.188976,1052.362205 A 17.716535,17.716535 -0.000000 0 0 120.472441,1034.645669"
         style="stroke:#000000;fill:none"
         id="path7720-5" />
      <path
         d="M -120.472441,1034.645669 A 17.716535,17.716535 -0.000000 0 0 -138.188976,1052.362205"
         style="stroke:#000000;fill:none"
         id="path7722-0" />
      <path
         d="M -138.188976,1052.362205 -138.188976,1070.078740"
         style="stroke:#000000;fill:none"
         id="path7724-4" />
      <path
         d="M -113.385827,1052.362205 A 7.086614,7.086614 -0.000000 1 0 -127.559055,1052.362205 7.086614,7.086614 -0.000000 1 0 -113.385827,1052.362205 z"
         style="stroke:#000000;fill:none"
         id="path7726-8" />
      <path
         d="M 127.559055,1052.362205 A 7.086614,7.086614 -0.000000 1 0 113.385827,1052.362205 7.086614,7.086614 -0.000000 1 0 127.559055,1052.362205 z"
         style="stroke:#000000;fill:none"
         id="path7728-7" />
    </symbol>
    <symbol
       id="*U1-7-1">
      <path
         d="M 138.188976,1070.078740 138.188976,1052.362205"
         style="stroke:#000000;fill:none"
         id="path7697-7" />
      <path
         d="M 120.472441,1034.645669 -120.472441,1034.645669"
         style="stroke:#000000;fill:none"
         id="path7699-2" />
      <path
         d="M 138.188976,1070.078740 -138.188976,1070.078740"
         style="stroke:#000000;fill:none"
         id="path7701-7" />
      <path
         d="M 138.188976,1052.362205 A 17.716535,17.716535 -0.000000 0 0 120.472441,1034.645669"
         style="stroke:#000000;fill:none"
         id="path7703-2" />
      <path
         d="M -120.472441,1034.645669 A 17.716535,17.716535 -0.000000 0 0 -138.188976,1052.362205"
         style="stroke:#000000;fill:none"
         id="path7705-2" />
      <path
         d="M -138.188976,1052.362205 -138.188976,1070.078740"
         style="stroke:#000000;fill:none"
         id="path7707-6" />
      <path
         d="M -113.385827,1052.362205 A 7.086614,7.086614 -0.000000 1 0 -127.559055,1052.362205 7.086614,7.086614 -0.000000 1 0 -113.385827,1052.362205 z"
         style="stroke:#000000;fill:none"
         id="path7709-1" />
      <path
         d="M 127.559055,1052.362205 A 7.086614,7.086614 -0.000000 1 0 113.385827,1052.362205 7.086614,7.086614 -0.000000 1 0 127.559055,1052.362205 z"
         style="stroke:#000000;fill:none"
         id="path7711-0" />
    </symbol>
    <symbol
       id="$PAPER_SPACE-8-6" />
    <symbol
       id="$MODEL_SPACE-1-1" />
    <pattern
       height="8"
       id="Hatch-6-5"
       patternUnits="userSpaceOnUse"
       width="8"
       x="0"
       y="0">
      <path
         d="M8 4 l-4,4"
         linecap="square"
         stroke="#000000"
         stroke-width="0.25"
         id="path7688-9" />
      <path
         d="M6 2 l-4,4"
         linecap="square"
         stroke="#000000"
         stroke-width="0.25"
         id="path7690-4" />
      <path
         d="M4 0 l-4,4"
         linecap="square"
         stroke="#000000"
         stroke-width="0.25"
         id="path7692-9" />
    </pattern>
    <marker
       id="DistanceX-2-0"
       orient="auto"
       refX="0.0"
       refY="0.0"
       style="overflow:visible">
      <path
         d="M 3,-3 L -3,3 M 0,-5 L  0,5"
         style="stroke:#000000; stroke-width:0.5"
         id="path7685-9" />
    </marker>
    <symbol
       id="*Paper_Space0-9" />
    <symbol
       id="*Paper_Space-5" />
    <symbol
       id="*Model_Space-7" />
    <pattern
       height="8"
       id="Hatch-23"
       patternUnits="userSpaceOnUse"
       width="8"
       x="0"
       y="0">
      <path
         d="M8 4 l-4,4"
         linecap="square"
         stroke="#000000"
         stroke-width="0.25"
         id="path8465" />
      <path
         d="M6 2 l-4,4"
         linecap="square"
         stroke="#000000"
         stroke-width="0.25"
         id="path8467" />
      <path
         d="M4 0 l-4,4"
         linecap="square"
         stroke="#000000"
         stroke-width="0.25"
         id="path8469" />
    </pattern>
    <marker
       id="DistanceX-20"
       orient="auto"
       refX="0.0"
       refY="0.0"
       style="overflow:visible">
      <path
         d="M 3,-3 L -3,3 M 0,-5 L  0,5"
         style="stroke:#000000; stroke-width:0.5"
         id="path8462" />
    </marker>
  </defs>
  <g
     inkscape:groupmode="layer"
     inkscape:label="0"
     id="g3023"
     transform="translate(0,1109.0551)"
     style="display:inline">
    <path
       style="color:#000000;font-style:normal;font-variant:normal;font-weight:normal;font-stretch:normal;font-size:medium;line-height:normal;font-family:Sans;-inkscape-font-specification:Sans;text-indent:0;text-align:start;text-decoration:none;text-decoration-line:none;letter-spacing:normal;word-spacing:normal;text-transform:none;writing-mode:lr-tb;direction:ltr;baseline-shift:baseline;text-anchor:start;display:inline;overflow:visible;visibility:visible;fill:none;stroke:#00f700;stroke-width:0.35433072;stroke-miterlimit:4;stroke-dasharray:none;stroke-opacity:1;marker:none;enable-background:accumulate"
       d="m 1859.4223,-1089.6689 c -37.9342,3.8048 -56.1977,3.7817 -96.7525,-0.152 -33.8932,-3.2874 -42.4305,-3.1258 -56.8871,1.0818 -9.2314,2.6868 -22.3377,4.1172 -28.8423,3.178 -3.3665,-0.4859 -7.0468,-0.6902 -10.3075,-0.5928 -3.2608,0.098 -6.0653,0.4711 -7.7607,1.149 -1.4314,0.5722 -4.6897,1.0806 -8.6376,1.3598 -3.9478,0.2791 -8.6326,0.3647 -13.0645,0.1637 -8.9149,-0.4058 -19.4442,-0.6777 -23.4957,-0.5865 -4.0152,0.089 -19.3348,0.4836 -34.0405,0.8811 -14.6782,0.3967 -35.8152,-0.228 -46.8957,-1.3909 -5.5775,-0.585 -10.671,-0.8756 -14.3676,-0.8793 -1.8483,-0 -3.3358,0.061 -4.4083,0.2103 -0.5363,0.075 -0.9753,0.1654 -1.3153,0.3006 -0.17,0.068 -0.3017,0.1526 -0.44,0.2773 -0.046,0.042 -0.055,0.1285 -0.095,0.1867 -0.043,0.015 -0.1718,0.062 -0.3446,0.091 -0.3456,0.057 -0.9025,0.1214 -1.6266,0.1729 -1.4483,0.103 -3.573,0.1601 -6.346,0.2242 -5.546,0.1281 -13.5951,0.1925 -23.5024,0.1634 -19.8148,-0.058 -47.1487,-0.4349 -77.212,-1.1012 -60.1347,-1.3322 -119.4768,-2.1381 -132.0206,-1.782 -29.8602,0.8491 -35.596,0.7956 -78.684,-0.7394 -10.0664,-0.3588 -19.3769,-0.5063 -26.2779,-0.4866 -3.4505,0.01 -6.3017,0.072 -8.3457,0.1749 -1.022,0.052 -1.8648,0.088 -2.4703,0.1653 -0.3028,0.039 -0.5465,0.099 -0.7514,0.1495 -0.2049,0.05 -0.355,0.039 -0.5647,0.2449 0.077,-0.076 -0.099,0.065 -0.4074,0.1214 -0.308,0.057 -0.7355,0.084 -1.2823,0.1135 -1.0937,0.059 -2.6255,0.057 -4.4376,-0.01 -3.6244,-0.1309 -8.4331,-0.504 -13.5533,-1.0908 -8.2087,-0.946 -22.6682,-1.4862 -35.6745,-1.6024 -6.5031,-0.058 -12.6394,-0.018 -17.4396,0.1556 -2.4001,0.087 -4.4797,0.2023 -6.0971,0.3514 -1.6175,0.1491 -2.7558,0.3075 -3.4427,0.5628 -0.7563,0.2808 -2.9818,0.5928 -5.7884,0.7604 -2.8065,0.1676 -6.2508,0.2298 -9.6587,0.2255 -3.4078,-0 -6.7741,-0.098 -9.4666,-0.2727 -1.3463,-0.087 -2.5215,-0.1847 -3.4349,-0.3122 -0.9133,-0.1274 -1.5877,-0.3132 -1.8087,-0.4225 -0.273,-0.135 -0.5982,-0.1967 -1.0912,-0.2911 -0.493,-0.094 -1.132,-0.1928 -1.9037,-0.2984 -1.5432,-0.2112 -3.629,-0.4333 -6.0878,-0.6798 -4.9177,-0.493 -11.369,-1.0362 -18.1432,-1.5384 -13.5483,-1.0042 -28.34433,-1.8564 -34.73506,-1.8127 -3.43808,0.024 -14.18525,0.887 -27.23874,2.0987 -13.05349,1.2117 -28.36197,2.7808 -40.82094,4.2265 -14.18734,1.6465 -38.7573,2.8701 -54.49552,2.7284 -8.66117,-0.078 -15.26896,0.1761 -19.94569,0.8205 -2.33836,0.3222 -4.18726,0.7368 -5.57437,1.2937 -1.38711,0.5568 -2.3755,1.2473 -2.8011,2.1936 -0.21281,0.4731 -0.25156,0.9991 -0.17003,1.5298 l 0,0 c 0.0815,0.5307 0.30478,1.0775 0.6416,1.6309 0.67362,1.1067 1.79755,2.2982 3.40501,3.6245 3.21491,2.6526 8.3021,5.8522 15.25678,9.7315 9.74847,5.4379 22.5322,12.724 28.38665,16.1936 17.30586,10.2554 60.21452,27.6055 110.47703,44.7149 39.64728,13.49595 50.98218,16.03945 73.10498,16.4399 11.6824,0.21144 18.4298,0.58337 23.3594,1.83531 4.9297,1.25195 8.0648,3.36676 12.6226,7.27015 5.0717,4.34332 15.4162,9.96464 25.7139,14.54452 5.1489,2.28995 10.2857,4.29588 14.73,5.75782 4.4444,1.46194 8.1942,2.38635 10.6663,2.4086 0.5247,0.005 1.9429,0.22509 3.9317,0.66041 1.9888,0.43531 4.5898,1.075 7.5774,1.84952 5.9753,1.54905 13.5701,3.66493 21.3531,6.00493 21.0057,6.31563 34.4463,8.3987 51.6494,7.93393 7.184,-0.19389 13.398,0.006 18.1519,0.56965 4.7538,0.56362 8.0747,1.56217 9.3206,2.61524 0.8449,0.71421 2.5015,1.36256 4.9806,2.16992 2.4792,0.80737 5.7424,1.71147 9.5391,2.64846 7.5933,1.87399 17.3917,3.92543 27.6673,5.843 20.551,3.83514 42.9418,7.10554 53.3123,7.19888 3.9412,0.0355 8.3079,0.53395 12.1764,1.29714 3.8685,0.76319 7.2358,1.82366 9.068,2.89423 2.2182,1.29611 7.0465,2.3207 13.5034,3.15291 6.457,0.83223 14.512,1.42126 22.9555,1.58167 19.9923,0.37889 37.1481,2.94164 54.8658,8.21291 7.1218,2.11887 14.5028,4.00265 20.6715,5.34251 6.1686,1.33987 11.0764,2.15119 13.4508,2.05865 1.0518,-0.0408 3.7616,0.0642 7.6852,0.28793 3.9235,0.22372 9.0714,0.57248 15.0852,1.0108 12.0276,0.87667 27.5092,2.13113 43.5324,3.54821 32.064,2.83582 84.5153,6.21166 116.5933,7.51844 32.0591,1.30641 68.7718,3.34957 81.4936,4.54615 10.9559,1.03027 16.8875,1.48967 21.1824,0.65942 4.2949,-0.83025 6.8437,-2.97387 10.8438,-6.90268 4.1015,-4.02831 6.3403,-6.59411 7.492,-12.96434 1.1517,-6.37023 1.3053,-16.55085 1.4816,-36.14438 0.1076,-11.94422 0.5283,-22.25166 1.1737,-29.70939 0.3228,-3.72887 0.6978,-6.75854 1.1114,-8.8966 0.2068,-1.06904 0.4334,-1.89996 0.6475,-2.49428 0.2141,-0.59432 0.4831,-0.91763 0.5084,-0.93296 0.9888,-0.59888 1.7087,-1.42169 2.1145,-2.29356 0.4058,-0.87187 0.4988,-1.84049 0.024,-2.6249 -0.7541,-1.24505 -0.4611,-3.0111 0.7958,-5.08679 1.2569,-2.07569 3.4167,-4.37731 6.1219,-6.57017 5.4105,-4.3857 12.9553,-8.28479 19.4592,-9.26274 6.2393,-0.93841 9.7745,-1.25395 11.7562,-0.64421 0.9909,0.30487 1.5924,0.80385 2.1106,1.61281 0.5183,0.80897 0.9264,1.94796 1.3125,3.4807 0.6614,2.62548 1.8558,4.53363 3.8543,5.78493 1.9986,1.2513 4.7187,1.85572 8.482,2.04517 5.5703,0.2794 14.5335,0.90469 19.8632,1.39758 5.4412,0.50279 14.8851,-0.24271 21.2032,-1.65297 56.5631,-12.62625 149.5131,-16.35043 202.394,-8.14747 27.6306,4.28619 51.3548,7.1564 68.4891,8.46052 8.5672,0.65207 15.4924,0.91765 20.4629,0.7467 4.9054,-0.21097 15.5684,0.62007 18.503,-0.23973 2.7795,-0.10308 7.1035,-1.46435 14.8813,-4.11622 9.5564,-3.25826 22.7266,-10.32423 29.425,-15.82953 3.2951,-2.7083 6.578,-5.1736 9.1879,-6.9489 1.3048,-0.8876 2.448,-1.6083 3.3314,-2.0951 0.4418,-0.2434 0.8055,-0.4333 1.0988,-0.5526 0.2933,-0.1193 0.5319,-0.1515 0.5638,-0.1512 0.58,0.01 1.1254,-0.2822 1.9131,-0.7328 0.7874,-0.4505 1.7333,-1.0939 2.7981,-1.8811 1.881,-1.3904 4.1514,-3.3559 6.3928,-5.4115 l 0,0.094 0.851,-0.8049 c 4.5116,-4.2452 7.5807,-9.6632 8.8536,-14.9522 1.273,-5.2889 0.7755,-10.4857 -1.9031,-14.2364 -1.1377,-1.593 -3.5588,-3.6617 -6.6963,-5.998 -3.1376,-2.3363 -6.996,-4.8996 -10.9037,-7.286 -3.9076,-2.3863 -7.8823,-4.5987 -11.2879,-6.2581 -3.4056,-1.6593 -6.1778,-2.7664 -7.9427,-2.9153 -1.6408,-0.1384 -3.1378,-0.6178 -4.1767,-1.2251 -1.0389,-0.6074 -1.5508,-1.3135 -1.5455,-1.889 0.01,-0.9427 -0.2345,-1.7244 -0.888,-2.0394 -0.3266,-0.1574 -0.7171,-0.1355 -1.0625,-0.01 -0.3453,0.126 -0.6787,0.357 -1.0061,0.6784 -0.162,0.1593 -0.3959,0.227 -0.8141,0.1802 -0.4183,-0.047 -0.9691,-0.2395 -1.5886,-0.5768 -1.2391,-0.6745 -2.7449,-1.9171 -4.1247,-3.5373 -4.1986,-4.9299 -11.24,-7.9025 -26.0395,-9.6097 -14.7995,-1.7072 -37.4261,-2.1649 -72.9542,-1.938 -13.0472,0.9402 -42.8563,0.2174 -50.1207,-0.7011 -4.1076,-0.32 -9.4709,0.064 -17.0726,1.0339 -5.4339,0.6933 -10.6956,1.1169 -14.793,1.2419 -2.0487,0.063 -3.7969,0.043 -5.1249,-0.046 -6.7608,0.02 -29.9493,2.938 -38.5283,2.9033 -2.4898,-0.2608 -5.5092,0.3416 -9.8903,1.661 -5.9529,1.7933 -15.8489,3.7167 -21.8518,4.2723 -7.7667,1.7514 -21.0009,1.7933 -30.1158,-1.1461 -2.5239,-0.5072 -5.8729,-0.7397 -10.0565,-0.7156 -7.4255,0.044 -21.2886,-0.6909 -30.7364,-1.6517 -7.3587,-0.7481 -9.4593,-0.9091 -23.614,-1.0805 z"
       id="path4818"
       inkscape:connector-curvature="0"
       sodipodi:nodetypes="csscsssccscccccccsssscsscsscccccscscssssccssscssssssccssccssscsssssscscssssssscssccssccssssssscscsscsscscccssccssccsscscccccsssccccsccccsccccccccccccc" />
    <g
       id="g5918"
       transform="matrix(-0.01360766,-1.0214045,1.0239778,-0.01388394,902.99201,-1358.2691)">
      <path
         id="path5914"
         d="m -434.06467,837.31135 6.66067,-9.20495 h 3.38754 3.38752 v -4.58348 -4.58362 l 1.83329,-3.16753 c 1.00831,-1.74232 1.85113,-4.45278 1.87299,-6.02339 l 0.0397,-2.85566 h -8.17306 -8.17307 l -3.22706,-4.21732 -3.22706,-4.21729 1.723,-2.01001 1.72299,-2.01001 16.2326,0.98838 16.23262,0.98836 3.3718,-2.10427 3.37181,-2.10425 h 7.55399 7.55398 v -3.04359 -3.04359 l -2.49231,-4.14073 -2.4923,-4.14073 -5.53268,-4.23731 -5.53267,-4.23729 -2.6514,-4.40503 -2.65137,-4.40503 -1.81026,-0.34721 -1.81025,-0.34721 v 7.08037 7.08039 l -3.29004,3.38207 -3.29006,3.38212 h -3.42469 -3.4247 l -1.39073,-2.18994 -1.39072,-2.18993 0.92567,-1.21762 c 0.50911,-0.66968 2.79036,-2.23792 5.06944,-3.48495 l 4.14379,-2.26733 -0.39781,-4.52403 -0.39779,-4.52402 -2.18515,0.13593 c -1.20184,0.0748 -5.29324,0.25838 -9.09199,0.40796 l -6.90684,0.27202 -0.77898,2.85569 c -0.42843,1.57063 -1.3282,3.78267 -1.99946,4.9156 l -1.2205,2.0599 -1.70734,-1.85175 -1.70732,-1.85176 v -4.65804 -4.65804 l 2.80949,-2.30215 2.8095,-2.30212 8.54365,-0.82331 8.54366,-0.82331 1.41758,-1.85257 1.41757,-1.85257 -1.5508,-2.81078 c -0.85293,-1.54594 -2.16367,-4.84566 -2.91275,-7.33274 l -1.36197,-4.52197 -2.28389,-1.59736 -2.28392,-1.5974 h -4.40846 -4.40848 l -1.23415,-3.01365 -1.23415,-3.01367 1.36091,-1.77851 1.36091,-1.7785 6.38478,0.92248 6.38478,0.92248 3.18998,3.8697 c 1.75449,2.12832 3.80738,3.86967 4.56196,3.86967 h 1.37197 l 0.52043,-15.91027 0.52041,-15.9103 -7.79553,-10.21604 -7.79553,-10.21602 -0.83111,-4.94519 -0.8311,-4.9452 1.51199,-2.38089 c 2.29774,-3.61816 3.10765,-3.03871 7.87575,5.63466 l 4.40643,8.01557 2.66844,1.10681 2.66843,1.10683 2.9955,-0.98252 2.9955,-0.98252 1.38424,-3.38013 1.38422,-3.38014 -1.79196,-2.71996 -1.79195,-2.71994 -2.36175,-12.23868 -2.36174,-12.23868 -4.20742,-6.11935 -4.20742,-6.11935 h -4.80542 -4.80542 l -1.23415,-3.01364 -1.23417,-3.01367 1.43995,-1.88181 1.43996,-1.88182 h 4.62039 4.62036 l 1.5545,-8.56709 1.5545,-8.56708 1.33765,-1.13052 1.33766,-1.13053 1.72555,1.87151 1.72552,1.87152 -0.82865,11.55636 -0.82865,11.55636 2.40418,2.84343 2.40417,2.84339 3.51257,-1.74523 3.51253,-1.74529 1.86164,2.4329 1.86163,2.43289 -1.60646,2.52963 c -0.88355,1.39133 -2.34733,2.52965 -3.25287,2.52965 -0.9055,0 -1.98652,0.7192 -2.40224,1.59825 l -0.75582,1.59825 1.48617,6.4826 1.48618,6.48258 1.19702,-0.32968 c 0.65838,-0.18131 2.82341,-2.40333 4.8112,-4.93781 l 3.61413,-4.60809 2.05511,0.52854 2.05507,0.52858 1.28482,2.66653 1.2848,2.6665 -3.96047,7.03795 -3.96045,7.03795 v 2.94217 2.94217 h 1.76086 1.76086 l 6.31871,-6.52731 6.3187,-6.52727 h 4.1684 4.16839 l 2.0667,-2.0398 2.06666,-2.03976 -1.41463,-11.73933 -1.41463,-11.73932 1.61249,-2.53914 1.61251,-2.53917 h 2.0947 c 1.15208,0 2.76897,0.8812 3.59308,1.9582 l 1.4984,1.95818 v 5.18105 c 0,2.84958 0.35117,7.47581 0.78042,10.28052 l 0.7804,5.09944 h 1.70126 1.70124 l 3.08672,-6.39014 c 1.6977,-3.51458 3.64151,-6.83819 4.31954,-7.38586 1.68042,-1.35725 8.85768,-15.3837 8.85768,-17.31049 v -1.55002 h -1.70461 c -0.93754,0 -3.11106,-1.44581 -4.83008,-3.21294 l -3.1255,-3.21291 -3.28621,-9.07035 c -3.78763,-10.45436 -3.99411,-12.70922 -1.41948,-15.50169 l 1.86676,-2.02466 3.13026,2.68041 3.13024,2.6804 3.23096,6.38044 3.23094,6.38048 1.76136,-0.88329 1.76135,-0.88331 v -4.7209 -4.72087 h -1.81302 -1.813 l -3.71763,-7.06148 -3.71764,-7.06147 -4.37534,-4.36131 -4.37535,-4.36128 -2.26847,0.0362 -2.26846,0.0362 -2.54766,2.81941 -2.54766,2.81939 -2.84962,7.75866 -2.84961,7.75865 0.40919,2.77667 0.40916,2.77665 2.99692,0.92459 2.99694,0.92456 1.29442,2.68181 1.29442,2.68178 -1.74925,2.75451 c -0.96211,1.51499 -3.03664,3.39417 -4.61007,4.17597 l -2.86081,1.42156 v 3.94536 3.94535 l -1.75568,0.88046 -1.75568,0.88046 -1.77488,-2.74565 c -0.9762,-1.51012 -2.45328,-5.85338 -3.28241,-9.65169 l -1.50751,-6.90605 1.76899,-3.7008 1.76898,-3.70083 0.79863,-7.03424 0.79865,-7.03428 -0.72745,-1.53825 -0.72748,-1.53825 -6.22069,8.57252 -6.2207,8.5725 0.65101,11.66015 0.65101,11.66019 -1.73783,1.88486 -1.73785,1.88486 -1.66903,-2.69071 c -0.91794,-1.47988 -3.27172,-4.74061 -5.23059,-7.24605 l -3.5616,-4.55531 0.88643,-3.64996 0.88646,-3.64999 -3.56818,-3.76157 -3.56813,-3.76159 1.93857,-2.58648 1.93859,-2.5865 4.12693,1.88011 4.12691,1.88013 6.71086,-9.60384 6.71085,-9.60383 -0.28975,-8.15914 -0.28972,-8.15912 -9.64034,-0.47572 -9.64033,-0.47575 -0.77867,4.05458 -0.7787,4.05462 0.72814,1.53968 0.72813,1.53966 -1.76698,1.91643 -1.76694,1.91645 -5.27193,-0.50768 -5.27192,-0.50766 -1.36673,-2.85006 -1.36672,-2.85007 1.55171,-3.24715 c 2.32504,-4.86532 1.9532,-7.07928 -2.70981,-16.13481 -2.34386,-4.55171 -4.92797,-10.91467 -5.74247,-14.1399 l -1.48087,-5.86405 0.69894,-6.01393 c 0.38441,-3.30764 1.17997,-10.33141 1.76789,-15.60833 l 1.06896,-9.59444 2.28551,-2.18402 2.2855,-2.18403 1.08363,0.87521 c 0.596,0.4814 1.9149,3.47525 2.93089,6.65303 l 1.84727,5.77783 2.19197,-1.11483 c 3.70748,-1.88561 4.25073,-1.78141 5.70019,1.09343 l 1.40284,2.78234 -3.07986,4.29507 -3.07986,4.29506 -4.11539,-0.86761 -4.11537,-0.8676 -1.2876,4.39704 -1.28759,4.39706 1.47202,6.45553 1.472,6.45551 4.44597,7.09067 4.44596,7.09063 3.85531,-0.49157 3.85531,-0.49158 0.40305,-3.71179 0.40305,-3.7118 3.03076,-2.59522 3.03079,-2.59521 v -2.57873 -2.57872 l -3.28386,-4.4794 -3.28386,-4.47938 0.97801,-2.95312 c 1.13753,-3.43476 1.39397,-4.9413 1.65353,-9.71377 l 0.19018,-3.49701 1.90745,-0.9566 1.90745,-0.95655 2.11604,3.22972 c 1.16382,1.77633 2.76521,3.22972 3.55863,3.22972 0.79345,0 2.07132,0.99002 2.83975,2.20003 l 1.39715,2.20003 -2.49292,2.94836 c -1.3711,1.62158 -2.49291,3.75937 -2.49291,4.75064 v 1.80231 l 2.49733,2.03817 2.49733,2.03817 -0.0191,4.47369 c -0.0248,5.825 -1.16101,7.97958 -5.28925,10.03076 l -3.38457,1.68167 0.73408,2.49997 0.73407,2.49998 h 6.48432 6.48431 l 1.4984,1.95818 1.49839,1.95819 v 6.69048 6.69049 l 1.49839,1.9582 c 0.82411,1.07701 2.42272,1.95819 3.55246,1.95819 h 2.05405 l 2.0234,-2.9219 2.0234,-2.92192 -0.77377,-22.37136 -0.77379,-22.37139 -1.99257,-0.0342 -1.99262,-0.0344 -7.26614,-9.0455 -7.26616,-9.0455 1.4879,-2.34297 c 2.23677,-3.52214 3.59115,-2.95114 10.15414,4.28099 l 6.01107,6.62395 1.24909,-1.00885 1.24909,-1.00896 -0.021,-5.20712 -0.021,-5.20714 -4.90973,-6.32314 -4.90975,-6.32315 -5.9177,-0.32587 -5.91771,-0.32587 -1.3196,-2.73396 -1.31961,-2.73399 1.37018,-2.85571 1.37018,-2.85567 5.59637,-0.48636 5.59637,-0.48629 5.15626,6.73851 5.15627,6.73852 1.29392,-1.04508 1.29392,-1.04505 v -6.10462 -6.10463 l 1.30843,-1.70995 1.30844,-1.70997 -1.49203,-4.27948 -1.49201,-4.27947 1.58512,-2.49607 1.58514,-2.49606 h 1.93395 1.93395 l 2.28348,2.70067 2.28347,2.70064 -0.008,4.23461 -0.008,4.23461 -2.48088,4.89547 -2.48085,4.89547 -0.008,3.5753 -0.008,3.5753 1.36137,1.09956 1.36137,1.09955 4.64337,-5.92546 4.64337,-5.92546 6.77641,-3.2369 c 3.72709,-1.7803 7.97987,-3.23692 9.45072,-3.23692 h 2.6742 l 1.55446,2.44773 1.55445,2.44774 h 2.19153 2.19154 l 1.55446,2.44774 1.55442,2.44773 -1.55442,2.44774 -1.55446,2.44774 -5.15392,-0.0389 c -2.83465,-0.0214 -7.29403,-0.68811 -9.90971,-1.48158 l -4.75582,-1.44265 -7.10647,7.80624 c -3.90858,4.29343 -8.60775,9.91681 -10.44259,12.49641 l -3.3361,4.69016 -0.85854,6.1021 -0.85856,6.10212 2.17921,1.09285 2.1792,1.09283 1.97519,-1.62822 c 1.88439,-1.55339 4.6864,-6.82875 7.86183,-14.80147 l 1.46236,-3.67158 h 3.39266 3.39267 l 1.48512,2.33855 1.48511,2.33858 -3.27715,2.80614 -3.27715,2.80621 -2.40867,6.17017 -2.40866,6.17021 -2.7919,2.55558 -2.79186,2.55556 h -3.39446 -3.39447 l -0.8239,1.74218 -0.8239,1.74216 0.88941,14.68565 0.8894,14.68561 3.08271,1.5317 3.08273,1.53171 7.42225,9.25206 7.42225,9.25208 1.38205,-1.80616 1.38204,-1.80614 -0.58145,-18.44332 -0.58147,-18.44332 1.22408,-6.55416 1.22405,-6.55413 4.34634,-7.05426 4.34634,-7.05426 2.96343,-1.47242 2.96346,-1.47238 v -2.97768 -2.97766 l 1.49838,-1.9582 1.4984,-1.9582 h 4.54448 4.54449 l 1.42233,4.07958 1.42231,4.07956 h 4.24419 4.2442 l 1.41696,2.23122 1.41694,2.23122 -1.80242,1.95491 -1.80242,1.95491 -7.26577,-0.4306 -7.26578,-0.4306 -2.49733,1.85726 c -1.37352,1.02155 -3.90208,2.25015 -5.61896,2.73024 l -3.12166,0.87293 -2.93134,5.67836 -2.93134,5.67835 -0.19032,5.37801 -0.19032,5.37802 h 6.24332 6.2433 l 0.4052,-6.50661 0.40521,-6.50661 1.32129,-2.08058 1.32131,-2.08061 1.70731,1.85174 1.70731,1.85178 v 5.51157 5.51158 h 2.95328 2.95327 l 3.15203,-3.24021 3.15204,-3.24023 1.48978,2.34592 1.48976,2.34592 -0.43052,2.92162 -0.43054,2.92163 -5.6037,3.58774 -5.60374,3.58774 -10.05172,0.0962 -10.05173,0.0961 -1.4984,1.95821 -1.49839,1.95819 v 11.00009 11.00012 l 1.19788,0.96748 1.19787,0.96749 2.54809,-2.07962 2.54814,-2.07954 v -4.99252 -4.99248 l 1.49839,-1.95818 1.49839,-1.95821 h 5.35133 5.35133 l 5.54022,-1.93649 5.54023,-1.93646 2.03233,2.20425 2.03234,2.20425 -1.62351,2.05037 c -0.8929,1.12766 -4.43298,3.15897 -7.8668,4.51403 l -6.24331,2.4637 3.12166,0.27633 3.12165,0.2763 -3.12165,1.30651 -3.12166,1.3065 3.80843,0.1627 3.80841,0.16268 1.49839,1.95819 1.49841,1.95817 v 5.66452 5.66448 l 2.13267,3.07972 2.13265,3.07967 -1.33225,2.76019 -1.33226,2.76017 h -2.87824 -2.87826 l -2.41439,-5.648 c -2.97535,-6.96012 -5.34752,-9.32721 -10.66856,-10.64548 l -4.12766,-1.02266 -4.81336,2.94669 -4.81335,2.94667 -0.7361,4.69151 c -0.40487,2.5803 -0.73611,7.16982 -0.73611,10.1989 v 5.50741 h 5.43265 5.43263 l 4.03288,-1.83724 4.03283,-1.83727 3.11782,2.18062 c 1.71478,1.19934 3.65444,3.49104 4.31033,5.09264 l 1.19253,2.91205 -4.0987,3.33679 -4.09871,3.33677 -5.1961,-0.95906 -5.19608,-0.9591 -0.88269,1.86647 -0.88269,1.86645 -5.56299,-1.09021 -5.56298,-1.09021 0.40378,4.40219 0.40383,4.40219 4.25056,1.8351 4.25061,1.83509 1.25494,2.63393 1.25498,2.63385 -0.80064,2.72663 -0.8006,2.72659 -3.63736,-2.45812 c -2.00053,-1.35198 -5.83758,-2.91792 -8.52679,-3.47988 l -4.8894,-1.02179 -4.0472,6.02401 -4.04722,6.02395 0.47693,1.8864 0.47693,1.88635 5.51913,0.9013 5.51915,0.90132 3.99613,2.77029 3.99615,2.7703 h 3.98253 3.98249 l 1.54994,-2.77011 1.54994,-2.77014 6.70401,0.43905 6.70402,0.43904 2.80949,2.36869 2.80949,2.36872 v 3.16924 3.16924 l -3.87534,5.76817 -3.87533,5.76816 h -3.58786 -3.58784 l -1.93533,-3.86004 -1.93532,-3.86003 -6.72652,-1.03317 -6.72653,-1.03315 -5.41439,-3.01166 -5.41439,-3.01163 -7.1798,-1.08445 -7.1798,-1.08445 v 3.27789 3.27791 l 3.43381,0.0294 3.43384,0.0295 4.239,6.66968 4.23905,6.66969 0.60624,15.14726 0.60628,15.14731 -0.89409,7.79176 -0.89408,7.79175 -3.543,4.63019 -3.54298,4.63018 -4.77854,0.0106 -4.77852,0.0106 -3.68799,3.17703 -3.688,3.17706 -1.61882,-1.7558 -1.61883,-1.75577 v -3.06384 -3.06385 h -1.82907 -1.82904 l -1.12389,-2.85568 -1.12385,-2.8557 0.55966,-2.03978 0.55966,-2.03978 h 4.241 4.24099 l 5.01958,2.62472 5.01957,2.62478 3.066,-1.00566 3.06599,-1.00564 1.29769,-6.1066 1.2977,-6.10665 -0.11753,-11.42277 -0.11754,-11.42277 -0.99973,-4.0808 -0.99974,-4.07957 -0.21221,4.07957 -0.21226,4.07955 -1.17843,-3.26365 -1.17846,-3.26364 0.70004,8.71626 0.70003,8.71626 -1.43791,2.26427 -1.43795,2.26425 -2.1951,-1.53528 -2.19508,-1.53526 -0.75617,-6.18162 c -0.41588,-3.39987 -2.01358,-11.5607 -3.55044,-18.13514 l -2.79429,-11.95353 -2.03832,-1.4256 -2.0383,-1.42563 -8.00547,4.16795 -8.00548,4.16794 -3.93316,4.88549 -3.93318,4.88551 -2.31013,-0.86969 -2.31015,-0.8697 -4.80042,1.11585 -4.80041,1.11584 -1.73626,6.52729 c -0.95494,3.59002 -1.74472,7.07806 -1.75506,7.75116 l -0.0187,1.22388 4.68249,-0.0162 4.68248,-0.0164 6.67948,-4.06361 c 3.67369,-2.23425 7.71428,-4.06286 8.9791,-4.06286 h 2.29963 l 0.77171,-1.63184 0.77172,-1.63182 h 3.16486 3.16487 l 0.65306,3.26366 0.65305,3.26364 h 3.49632 3.49628 l 0.53011,2.03979 0.53006,2.03976 -1.98685,5.27586 -1.98685,5.27584 -2.13801,0.93389 -2.13797,0.93391 -2.4624,-1.72222 c -1.35432,-0.94723 -3.06125,-1.72223 -3.79317,-1.72223 h -1.33075 v 4.56911 4.56911 l -1.43995,1.8818 -1.43995,1.88182 -2.30604,-1.61287 -2.30601,-1.61287 v -5.65395 -5.65399 h -2.42364 -2.42365 l -0.66991,1.41657 -0.66991,1.41658 -8.76874,-0.81992 -8.76873,-0.81992 v 16.58992 16.58993 l 1.68865,5.25103 1.68869,5.251 5.67993,6.5273 c 10.71697,12.31574 16.96567,18.76599 18.17956,18.76599 1.53332,0 2.73105,-3.9926 2.73105,-9.10381 v -3.94139 l -4.19012,-6.12407 c -2.30456,-3.36818 -4.83311,-7.72798 -5.61897,-9.68835 l -1.42887,-3.56434 v -4.80292 -4.80295 l 1.9476,-2.11237 1.94757,-2.11235 3.25467,1.5046 3.25465,1.50461 2.04184,4.89544 c 1.12302,2.69253 2.7153,8.80669 3.53838,13.58705 l 1.49656,8.69159 v 7.67153 7.67155 l -2.02234,3.77326 -2.02231,3.77328 1.32186,3.79149 1.32189,3.79148 2.68443,1.11345 2.68444,1.11349 2.03691,-3.82762 c 1.12031,-2.10518 3.3416,-5.54412 4.93619,-7.64206 l 2.8993,-3.81441 1.74622,1.89394 1.74623,1.89397 -0.75331,2.73639 c -0.41429,1.50501 -1.78563,4.68555 -3.0474,7.06784 -1.26179,2.38231 -2.29415,5.24345 -2.29415,6.35808 v 2.02661 l 5.43304,7.5907 5.43307,7.59071 1.38075,15.424 c 0.75939,8.48336 1.73218,20.60784 2.16171,26.94355 l 0.78099,11.51938 -1.81014,1.96326 -1.81011,1.96322 -1.43041,-2.25237 -1.43037,-2.25226 -1.26138,-17.75769 c -1.48044,-20.84183 -2.36939,-28.13771 -3.9008,-32.01493 -0.61578,-1.55905 -4.50428,-6.51571 -8.6411,-11.01481 l -7.52153,-8.18023 h -12.02754 -12.02758 l -5.35973,3.39078 -5.35973,3.39079 -3.29574,5.11857 -3.29571,5.1187 0.55266,12.2963 0.55267,12.29644 1.77432,3.68971 1.77433,3.68989 2.29679,0.95267 2.29682,0.95266 4.10971,-1.00749 4.1097,-1.00766 3.27369,-3.96501 3.27372,-3.96483 v -4.43695 -4.43708 l 2.06654,-2.98411 2.06652,-2.98414 h 2.94647 2.94649 l 2.47429,5.30344 2.47431,5.30343 0.005,8.41286 0.005,8.41287 -2.80948,6.93608 -2.80949,6.93607 -3.74599,3.00305 -3.74599,3.00288 h -9.39263 -9.39264 l -4.62059,-4.9774 -4.62061,-4.97738 -3.24463,-8.48515 c -1.78456,-4.66686 -3.78489,-9.20678 -4.44519,-10.08859 l -1.20053,-1.60328 -5.05114,7.7226 -5.05108,7.72295 h -4.64776 -4.64776 l -1.4344,-1.87465 -1.43442,-1.87445 1.75011,-4.42291 c 0.96257,-2.43257 4.74741,-8.56513 8.41076,-13.62787 z"
         style="fill:#000000"
         inkscape:connector-curvature="0" />
      <path
         id="path5902"
         d="m -347.9568,755.0007 c 0.82411,-1.07702 2.34819,-1.95818 3.38681,-1.95818 h 1.88839 l 3.4894,4.4875 c 1.91917,2.46813 5.01542,6.5069 6.88055,8.97504 1.86514,2.46813 4.04487,4.48753 4.84381,4.48753 h 1.45268 l 2.15329,-6.11935 c 1.18431,-3.36565 2.79354,-6.85366 3.5761,-7.75117 0.78252,-0.89751 3.5941,-5.84612 6.24791,-10.99694 l 4.8251,-9.36509 4.06292,-3.28155 4.0629,-3.28154 h 5.68164 c 3.12491,0 6.57045,0.44573 7.65674,0.99051 l 1.97513,0.99049 v 2.93786 2.93782 l -6.1942,7.27806 c -6.58719,7.73981 -13.23219,12.6063 -17.21339,12.6063 h -2.42725 l -1.90719,2.85569 c -1.04895,1.57061 -2.91305,5.79297 -4.14239,9.38299 -1.22939,3.59001 -3.44958,8.73025 -4.93376,11.42278 -1.48419,2.6925 -3.05405,6.15701 -3.48856,7.69888 l -0.79004,2.80345 1.10056,0.8889 1.10057,0.88891 3.2828,-1.95472 3.28282,-1.95475 3.67839,-7.12284 c 2.02313,-3.91755 3.67839,-8.13421 3.67839,-9.37033 v -2.2475 l 3.29006,-3.38208 3.29004,-3.38209 h 7.07385 7.07384 l 1.49839,1.9582 1.49841,1.95818 v 3.3901 3.39012 l -1.94381,3.62671 -1.94379,3.62678 h -6.85359 -6.8536 l -3.06489,4.00537 -3.06491,4.00539 v 2.46449 2.46449 l 2.41525,1.68925 c 1.32837,0.92909 3.48889,1.68924 4.80111,1.68924 h 2.3859 l 2.31487,-3.34282 2.31487,-3.34286 3.68386,0.48717 3.68389,0.48711 1.24629,2.60315 1.24629,2.60311 -0.83201,4.33213 -0.83196,4.33213 h -10.42145 -10.42146 l -3.17482,-3.26364 c -3.44481,-3.54116 -5.97722,-4.11306 -7.83803,-1.77001 -0.65242,0.82152 -2.59096,1.7394 -4.30789,2.03977 l -3.12165,0.54614 v 8.15907 8.15914 l 11.43486,0.46719 11.43485,0.46719 1.51684,2.38848 1.51681,2.38853 -1.55444,2.44773 -1.55446,2.44773 h -9.01855 -9.01852 l -2.14456,3.09688 -2.14456,3.09689 0.39021,7.102 0.39018,7.10203 6.95434,-0.52217 6.95432,-0.52234 1.48954,2.34558 1.48954,2.34559 -1.71453,1.85947 -1.71454,1.85963 -9.78765,1.62168 -9.78766,1.62188 -1.19327,-1.55954 -1.19328,-1.55935 -0.74812,-16.49596 -0.74814,-16.49579 0.81883,-1.93567 c 0.45038,-1.06478 1.22435,-11.59983 1.71999,-23.41144 l 0.90114,-21.47566 -3.76522,-2.54455 -3.7652,-2.54451 -4.48072,-6.9845 c -4.86869,-7.58923 -5.31025,-9.39111 -3.03121,-12.36949 z"
         style="fill:#000000"
         inkscape:connector-curvature="0" />
      <path
         id="path5860"
         d="m -403.772,461.61173 3.12165,-2.67302 v -2.12784 c 0,-1.17027 -0.98331,-4.43308 -2.18515,-7.2506 l -2.18515,-5.12281 3.189,-3.57652 c 1.75394,-1.96709 4.1641,-5.61413 5.3559,-8.10455 l 2.1669,-4.52802 -1.88653,-3.51989 -1.88652,-3.5199 1.36599,-2.15098 1.36599,-2.15099 h 2.27363 2.27364 l 1.9438,3.62674 1.94379,3.62672 v 4.27949 4.27947 l -2.49733,2.95356 -2.49731,2.95358 v 2.84953 2.84956 l 4.37031,3.3698 4.3703,3.3698 v 2.30294 c 0,1.26666 -0.79281,3.16289 -1.76182,4.21384 l -1.76181,1.91089 -0.8092,-1.71107 -0.80918,-1.71106 h -2.45455 -2.45454 l -1.21142,4.16398 -1.21138,4.16396 -3.98584,4.75762 -3.98583,4.75762 -1.6395,-1.77819 -1.6395,-1.77818 v -3.02623 -3.02621 z"
         style="fill:#000000"
         inkscape:connector-curvature="0" />
      <path
         id="path5856"
         d="m -383.24136,356.5091 h 2.11926 l 2.89739,4.35483 2.89739,4.35484 1.6981,-3.03491 1.6981,-3.03488 v -11.92681 -11.9268 h -2.49732 -2.49732 v 2.33118 c 0,1.28215 -0.90238,3.51046 -2.00528,4.9518 l -2.00529,2.62063 -1.83614,-1.99147 -1.83611,-1.99146 0.83149,-5.81604 c 0.45733,-3.19882 1.41191,-6.73393 2.12131,-7.8558 l 1.28982,-2.03979 h 5.3769 5.37688 l 1.96218,2.5643 1.9622,2.56431 v 16.35224 16.35225 l -2.49732,4.14908 c -1.37353,2.28196 -2.49733,5.15151 -2.49733,6.37672 v 2.22767 h 2.08683 2.08686 l 2.28345,2.70066 c 2.59987,3.07484 2.89025,5.64461 0.92766,8.20945 l -1.35586,1.77188 -4.93076,-2.5312 -4.93078,-2.5312 -1.33611,1.74611 -1.33611,1.7461 -0.66178,13.86244 -0.66177,13.86247 8.90884,11.64257 8.90884,11.64262 v 6.14463 6.14468 l -1.4984,1.9582 -1.4984,1.95818 h -5.36926 -5.36924 l -2.58087,-3.37284 -2.58087,-3.37285 1.50513,-2.37009 1.50515,-2.37008 4.19739,1.02905 4.19739,1.02907 v -2.4603 -2.46032 l -4.68249,-5.36496 c -2.57535,-2.95073 -6.2277,-7.90087 -8.11631,-11.00028 l -3.43381,-5.63531 v -11.41821 -11.41821 l 1.43386,-10.1699 1.43389,-10.16988 -3.09822,-7.15242 -3.0982,-7.15239 1.19289,-2.03979 1.1929,-2.03977 z"
         style="fill:#000000"
         inkscape:connector-curvature="0" />
      <path
         id="path5850"
         d="m -384.33862,260.63628 1.32776,-4.97762 6.78855,-7.07921 6.78852,-7.07919 v -1.77274 c 0,-0.97499 -1.40475,-3.49737 -3.12165,-5.60529 -3.59616,-4.41511 -3.9039,-6.91107 -1.21205,-9.83064 l 1.90959,-2.07115 3.21753,3.91112 c 1.76965,2.1511 3.70182,5.54929 4.29374,7.55155 l 1.07621,3.64046 1.91296,-0.95936 1.91297,-0.95933 v -5.00034 -5.00034 l 2.06653,-2.98421 2.06652,-2.98418 h 2.15089 2.1509 l 1.39713,2.20004 1.39717,2.20006 -2.49292,2.94834 -2.49292,2.94834 v 5.25492 5.25492 l 7.14038,4.69107 7.14037,4.69107 3.70113,9.79095 c 2.03562,5.38501 4.16049,11.06603 4.72191,12.62449 0.56143,1.55846 1.0208,5.78081 1.0208,9.383 v 6.54943 h 1.79379 1.79379 l 7.53104,-11.01479 c 4.14208,-6.05816 10.91733,-17.62372 15.05613,-25.70124 l 7.52509,-14.68643 0.008,-12.41889 c 0.005,-6.83039 -0.35036,-15.82638 -0.78718,-19.99108 l -0.79417,-7.57221 -2.94749,-4.15633 -2.9475,-4.15636 -7.80845,0.48598 -7.80842,0.48594 -0.3951,4.48753 -0.39509,4.48752 h 2.95485 2.95486 l 1.48135,1.93593 1.48133,1.93589 -2.04946,2.95958 -2.04947,2.95955 h -3.92707 -3.92705 l -1.4984,-1.95818 -1.49839,-1.9582 v -2.93729 -2.93728 h -2.26605 -2.26605 l -2.10427,5.76676 -2.10425,5.76673 v 6.55301 6.55295 l 1.89569,4.79078 1.89571,4.79083 2.86728,0.94046 c 1.577,0.51728 3.39295,0.77458 4.03543,0.57188 0.64249,-0.20273 2.66106,0.18146 4.48569,0.85373 l 3.31752,1.22236 2.61362,-1.82798 2.61361,-1.82802 v -1.79523 c 0,-0.98738 -1.4562,-3.55896 -3.23602,-5.71459 l -3.23606,-3.91937 1.51593,-2.3871 c 2.10213,-3.31015 3.46318,-3.01801 8.27212,1.77548 l 4.17602,4.1626 v 5.37544 5.37543 l -2.18516,2.51053 c -1.20183,1.38078 -4.57323,4.07965 -7.49198,5.99747 l -5.3068,3.48694 v 5.67822 5.67822 l -2.58089,3.37284 -2.58086,3.37283 -1.72177,-1.8674 -1.72176,-1.86742 1.18098,-4.05941 c 0.64953,-2.23265 1.18099,-5.48699 1.18099,-7.23188 v -3.17251 l -5.93115,-4.77355 -5.93115,-4.77355 -2.18516,-4.84612 -2.18515,-4.84614 v -11.65999 -11.66 l 1.76151,-4.40648 c 0.96883,-2.42356 3.49736,-6.56324 5.61898,-9.1993 4.66122,-5.7915 4.70133,-6.48005 0.7358,-12.63895 l -3.12165,-4.84827 v -4.57047 -4.57046 l 1.97767,-2.14498 1.97766,-2.14494 2.08048,1.75362 2.08051,1.75366 -0.38253,2.72813 -0.38252,2.72809 2.23935,6.1256 2.23937,6.1256 10.24769,-0.7029 10.2477,-0.70291 3.00596,0.98592 3.00596,0.98598 3.61944,6.82269 3.61941,6.8227 v 23.80381 23.80383 l -5.93113,10.81407 -5.93114,10.81409 v 2.64846 2.64848 h 1.15137 c 1.96701,0 9.30127,-12.3192 12.77959,-21.46566 3.69083,-9.70525 6.04763,-21.36335 6.04763,-29.91494 v -5.64266 l -3.08386,-15.88202 -3.08384,-15.88203 -3.65571,-6.60087 -3.65568,-6.60087 -6.05924,-2.85757 -6.05924,-2.85758 -1.7191,0.84594 -1.71909,0.84596 -1.68847,-1.83133 -1.68849,-1.83134 1.26634,-3.0923 1.26636,-3.09229 h 3.77961 3.77959 l 6.17687,2.64032 6.17688,2.6403 4.89601,8.03604 4.896,8.03604 0.82528,4.91052 0.82529,4.91052 3.94472,-0.49249 3.94474,-0.4925 0.38793,3.5612 0.38795,3.56119 -2.57638,1.80194 -2.57636,1.80194 0.798,15.91365 0.79801,15.91366 -2.15594,11.23453 -2.15595,11.23456 -4.25776,8.26249 -4.25777,8.26251 v 2.87749 2.87747 h 1.59515 c 0.87735,0 2.87077,1.16765 4.42986,2.59476 l 2.83468,2.59477 -1.52217,2.3969 -1.52217,2.39688 -4.46849,-0.94303 -4.46853,-0.94306 -3.57656,2.47872 -3.57653,2.47866 h -2.99785 -2.99783 l -9.6582,9.8542 c -5.31203,5.4198 -10.96248,11.28534 -12.55659,13.03454 l -2.89833,3.18036 0.40102,3.69168 0.40102,3.69162 6.2433,-0.39767 6.24332,-0.39766 4.99465,-6.94554 c 2.74705,-3.82006 6.40178,-9.39768 8.12163,-12.39474 l 3.12697,-5.44923 5.61364,-1.41498 c 3.08751,-0.77824 8.21389,-1.44695 11.39194,-1.48604 l 5.77824,-0.071 1.41696,2.23124 1.41695,2.23123 -1.57625,1.65015 -1.57622,1.65012 -8.15625,1.10591 c -4.48593,0.60823 -8.76041,1.61532 -9.49889,2.23798 -0.73847,0.62262 -4.23234,5.68941 -7.76418,11.25948 l -6.42156,10.12744 v 2.25198 c 0,1.23857 2.03359,6.22799 4.51905,11.08756 l 4.51903,8.83557 3.16285,3.11782 3.16283,3.11781 6.36559,0.75893 6.36555,0.75893 1.57622,1.64194 1.57623,1.64193 -1.41694,2.23123 -1.41697,2.23123 h -6.00911 -6.00914 l -3.5151,-1.73566 c -4.45536,-2.19987 -9.55654,-8.47053 -14.51804,-17.84624 -2.13723,-4.03877 -5.03108,-8.60383 -6.43077,-10.14461 l -2.54491,-2.80141 -2.22432,-0.0543 -2.22437,-0.0543 -0.69571,2.36933 -0.69571,2.36936 3.52731,8.46958 3.52732,8.46955 4.69956,4.06436 c 2.58475,2.2354 4.70341,4.51751 4.70809,5.07138 0.005,0.55386 1.96869,2.75154 4.36444,4.88371 l 4.35593,3.87669 1.28845,6.25331 c 0.70866,3.43933 1.8351,6.69482 2.5032,7.23442 l 1.21474,0.98122 v 3.04784 3.04782 l 3.93783,2.56726 3.93783,2.56725 h 3.40123 3.40125 l 1.41697,2.23123 1.41694,2.23122 -1.57623,1.59504 c -0.86691,0.87725 -2.61913,2.083 -3.89382,2.67942 l -2.31762,1.08445 0.82194,4.27968 0.82191,4.27968 2.5604,2.70949 2.56037,2.70945 -2.0012,2.17051 -2.00119,2.17048 v 3.67995 3.67993 l -1.70732,1.85174 -1.70732,1.85177 -1.34369,-2.11587 -1.3437,-2.11586 -1.27653,-10.35903 c -0.70212,-5.6975 -1.57676,-10.75135 -1.94365,-11.23083 l -0.66709,-0.87178 -0.0191,2.31172 -0.0192,2.31178 -1.1306,-2.33484 -1.13062,-2.33483 -0.88443,6.4144 c -0.48645,3.5279 -1.74292,8.36073 -2.79214,10.73964 l -1.9077,4.32525 2.69321,7.48769 c 1.48126,4.11824 2.6932,8.55385 2.6932,9.8569 0,1.30309 0.56188,2.82305 1.24867,3.37776 l 1.24865,1.00849 v 3.21859 3.21856 l 1.9195,0.96259 1.91949,0.96261 2.4274,-2.87085 2.42739,-2.87085 1.84343,1.99937 1.8434,1.99934 -0.6928,4.52713 -0.69286,4.52717 1.98992,5.02886 1.98992,5.02889 -1.55626,1.26613 -1.55625,1.26612 -2.56417,-0.43239 -2.5642,-0.43237 -2.30783,3.33265 -2.30783,3.33267 -1.68346,-1.82589 -1.68344,-1.82586 v -6.12769 -6.12769 l -1.79274,-1.94438 -1.79273,-1.9444 -0.86338,-5.13709 c -0.47484,-2.82543 -1.30693,-6.2627 -1.84909,-7.63843 -0.54215,-1.3757 -1.66266,-4.88784 -2.49004,-7.80473 l -1.5043,-5.30342 h -1.10799 c -0.60939,0 -3.43502,2.20296 -6.27917,4.89548 l -5.17118,4.89546 h -3.41303 -3.41299 l -0.65307,3.26366 -0.65305,3.26366 h -1.90574 -1.90576 l -0.71282,-2.93501 c -0.39203,-1.61426 -3.5557,-6.93809 -7.03038,-11.83073 l -6.31757,-8.89572 -0.70702,-4.52148 c -0.38885,-2.48682 -1.23174,-4.9453 -1.87307,-5.46329 l -1.16607,-0.94181 -2.2048,2.6076 -2.20479,2.60759 h -4.33443 -4.33442 l -1.4984,-1.95819 -1.49841,-1.9582 v -11.039 -11.03899 l 2.30603,-1.61285 2.30605,-1.61287 1.3609,1.77852 1.36091,1.77851 -0.7192,7.93605 -0.71923,7.93608 h 2.09085 c 2.55785,0 8.30011,-4.64752 10.46564,-8.47038 l 1.59499,-2.81571 1.78091,0.89311 1.7809,0.8931 2.83308,-2.59329 2.83307,-2.59328 h 6.42143 6.42139 l 3.14973,3.23784 3.14975,3.23785 0.8184,4.26148 0.81843,4.26145 -1.43355,2.25735 -1.43355,2.25735 -2.36619,-1.65494 -2.36623,-1.65495 v -2.3329 -2.33292 l -2.41522,-1.68924 c -1.32839,-0.92908 -3.53275,-1.68923 -4.89861,-1.68923 h -2.48336 l -3.84204,5.02099 c -4.552,5.94885 -4.62801,6.80235 -1.24286,13.96035 l 2.59916,5.49603 h 1.62552 1.62551 l 0.65307,-3.26365 0.65307,-3.26365 h 2.02909 2.02907 l 0.75095,2.55743 0.75095,2.5574 -1.3169,1.721 -1.31688,1.72098 0.66034,2.24889 0.66035,2.2489 h 2.36014 2.36013 l 4.92705,-5.81721 4.92706,-5.81722 3.39698,-7.5752 3.39694,-7.57518 0.57565,-11.72203 0.57563,-11.72202 -3.27328,-9.04235 -3.27329,-9.04234 -2.40944,-0.9994 -2.40945,-0.9994 -7.64417,-10.67917 -7.64414,-10.67914 -1.65583,0.83037 -1.6558,0.83037 -0.82501,7.18967 -0.82498,7.1897 0.84482,2.87717 0.84484,2.87719 2.93723,-0.73378 2.93722,-0.73379 1.33091,2.09576 1.33094,2.09578 -0.87113,6.06842 -0.87114,6.06838 2.98197,-0.82618 c 1.64007,-0.45439 3.7366,-1.11012 4.65897,-1.45717 l 1.67704,-0.63101 1.42345,2.82508 1.42346,2.82507 -1.85182,2.27976 -1.85184,2.27976 -13.33257,0.91631 -13.33259,0.91634 -1.40162,-2.20708 -1.40161,-2.20707 0.37458,-10.3414 0.37458,-10.34137 2.65866,-1.52595 2.65865,-1.52593 0.89015,-9.08094 c 0.4896,-4.99449 0.9789,-10.91671 1.08733,-13.16045 l 0.19719,-4.07957 -5.96438,0.55861 -5.96436,0.55859 -5.2736,-5.94394 c -2.90045,-3.26916 -5.9567,-6.64686 -6.79166,-7.50599 l -1.51806,-1.56208 0.71786,-2.44479 0.71789,-2.44478 4.72584,-0.98761 4.72585,-0.98755 2.7219,-4.81128 2.72186,-4.81125 5.21478,0.50462 5.21475,0.50461 0.36366,-14.53753 0.36368,-14.53751 -1.29071,-1.6868 -1.29073,-1.68678 -10.12012,-0.33414 -10.12012,-0.33418 -1.3241,-1.73039 -1.3241,-1.73042 1.59838,-2.5169 1.59834,-2.51689 h 7.96343 7.9634 v -3.20006 -3.20012 l -2.80949,-3.51903 c -1.54521,-1.93548 -4.73474,-4.59817 -7.08782,-5.91711 l -4.27835,-2.39801 -5.26664,1.03211 -5.26663,1.03215 -5.63498,5.73733 -5.63497,5.73734 -0.76699,3.99358 -0.76697,3.99364 1.9124,4.833 1.91241,4.83302 2.40231,1.68021 c 1.32129,0.92411 3.7752,1.68019 5.45317,1.68019 h 3.05085 l 1.37185,2.1602 1.37184,2.1602 -1.46868,1.91937 -1.4687,1.91936 h -4.9092 -4.90922 l -5.45468,-7.12849 -5.45468,-7.12852 v -5.68258 c 0,-3.12542 0.59751,-7.92253 1.32777,-10.66023 z"
         style="fill:#000000"
         inkscape:connector-curvature="0" />
      <path
         id="path5840"
         d="m -343.39522,130.13312 1.432,-3.49678 v -4.80292 -4.80295 l 1.65297,-1.79281 1.65297,-1.7928 1.46869,1.91935 1.46868,1.91938 v 4.68259 4.6826 l 2.77824,-0.52145 2.77823,-0.52144 1.28027,-3.26365 c 0.70414,-1.79502 1.75154,-4.21721 2.32757,-5.38267 l 1.04731,-2.11904 1.76183,1.91089 1.76183,1.91089 v 4.39034 4.39036 l -3.746,4.69018 c -4.47968,5.60879 -4.58503,6.74807 -0.97698,10.5662 l 2.76898,2.93024 -1.62879,2.56484 -1.62882,2.56481 -5.19833,-2.62317 c -2.85909,-1.44278 -5.73213,-3.2471 -6.38456,-4.00964 l -1.18623,-1.38643 h -3.24653 -3.24652 l -1.56104,-2.03978 -1.56104,-2.03977 2.37665,-2.5153 c 1.30715,-1.38342 3.02103,-4.08884 3.80862,-6.01207 z"
         style="fill:#000000"
         inkscape:connector-curvature="0" />
      <path
         id="path5834"
         d="m -325.85256,75.948713 3.6291,-3.377131 h 2.61999 2.62 l 4.67921,-6.768681 4.67925,-6.76867 v -2.614343 -2.614344 l -2.27781,0.507348 -2.27779,0.507322 -1.75411,-1.902553 -1.75413,-1.902524 1.33632,-3.263178 1.33632,-3.263152 9.2284,0.609167 9.2284,0.608994 0.54993,-1.872851 0.54991,-1.872837 -4.27322,-5.412776 -4.27324,-5.412761 V 19.986629 8.8373562 l 3.69114,-9.55597104 3.69114,-9.55579816 5.19592,-5.812396 5.19589,-5.812237 3.73761,-1.072763 3.73761,-1.072751 1.82414,2.383755 1.82416,2.383941 -2.05139,2.680922 -2.05137,2.680764 h -1.90321 c -1.04678,0 -3.46432,1.452809 -5.37233,3.22823 l -3.4691,3.2282421 -3.90345,9.9671827 -3.90347,9.9670252 v 7.202551 7.202392 l 2.46856,3.226101 c 2.77921,3.631975 10.44406,8.196668 13.76367,8.196668 h 2.19193 l 1.55443,2.447729 1.55447,2.447744 -1.48784,2.342977 -1.48784,2.342806 -3.97186,1.093489 c -2.18454,0.601313 -6.78138,3.172923 -10.2152,5.714476 l -6.24329,4.621174 -6.74227,8.645761 -6.74225,8.645724 -1.68624,5.274037 -1.68619,5.27404 v 7.338857 7.338842 l 3.87534,5.76816 3.87534,5.76816 h 1.71157 1.71158 l 1.95512,-4.94093 1.95511,-4.94094 -0.76981,-5.362618 -0.76982,-5.36261 1.85592,-2.012921 1.85592,-2.012924 1.9855,3.704528 1.98548,3.704527 v 5.944158 5.94413 l -2.49733,4.14906 c -2.74763,4.56494 -3.12337,7.0156 -1.30127,8.48727 l 1.19605,0.96602 8.16892,-10.46749 8.16892,-10.46754 v -4.034436 -4.034421 l -3.0912,-3.909896 c -1.70015,-2.150444 -4.26628,-5.244087 -5.70252,-6.874771 l -2.61133,-2.964885 1.48511,-2.338536 1.48508,-2.338564 h 2.32064 2.32067 l 0.77061,-4.012614 c 0.42385,-2.20695 1.48379,-4.786133 2.35544,-5.731513 l 1.58481,-1.718889 1.64674,2.593063 1.64673,2.593048 -1.24254,6.083605 -1.24253,6.083617 2.82897,6.437834 2.82897,6.437848 0.0541,5.230446 0.0541,5.230454 -6.74362,9.02678 -6.74361,9.02676 -3.24568,1.61269 -3.24568,1.61268 v 2.11735 c 0,1.16459 1.86769,5.82357 4.15042,10.35334 2.28271,4.52976 4.49691,9.41599 4.92043,10.85827 l 0.77001,2.62238 -1.75238,1.90063 -1.75238,1.90062 -3.29376,-4.63701 c -1.81154,-2.55036 -4.09445,-6.65639 -5.0731,-9.12453 l -1.77937,-4.4875 h -1.69816 c -0.93404,0 -3.30766,1.09695 -5.27477,2.43767 l -3.57654,2.43768 -3.28094,0.009 -3.28093,0.009 -1.46218,-2.30247 -1.4622,-2.30244 1.62147,-1.36914 c 0.8918,-0.75305 3.58363,-2.12536 5.98184,-3.04963 l 4.36039,-1.68045 0.34405,-2.39911 0.34404,-2.39909 -5.60987,-4.61168 c -3.08545,-2.53642 -7.02861,-6.81514 -8.76259,-9.50821 l -3.15271,-4.89597 V 96.106243 85.6246 l -2.18517,0.02499 c -1.20183,0.01321 -3.00915,0.706056 -4.01626,1.538489 l -1.8311,1.513505 -1.57648,-1.709845 -1.57646,-1.709821 1.21988,-2.978832 c 0.67094,-1.638348 2.85298,-4.498522 4.849,-6.355947 z"
         style="fill:#000000"
         inkscape:connector-curvature="0" />
      <path
         id="path5800"
         d="m -294.96275,314.21518 c 0.24885,-0.37531 1.86771,0.30745 3.59744,1.51727 l 3.14501,2.19963 1.47317,-1.92522 c 0.81024,-1.05886 2.16804,-1.92522 3.01731,-1.92522 h 1.54415 l 0.39128,5.30346 0.39128,5.30341 1.87299,0.0432 c 1.03014,0.0236 2.58453,0.62519 3.4542,1.33662 l 1.58117,1.29351 -0.71838,1.51906 -0.71838,1.51906 h -3.45604 -3.45603 l 0.54978,4.89549 0.5498,4.89548 h -1.94102 c -1.06757,0 -2.2883,-0.73433 -2.71274,-1.63185 l -0.77171,-1.63181 -2.7358,-0.004 -2.73581,-0.004 -2.04961,-4.48462 -2.04959,-4.4846 0.66254,-6.52728 c 0.3644,-3.59003 0.86612,-6.83439 1.11499,-7.20969 z"
         style="fill:#000000"
         inkscape:connector-curvature="0" />
      <path
         id="path5778"
         d="m -287.5591,372.13042 c 1.07815,-1.409 3.3733,-3.02531 5.10031,-3.59178 l 3.14004,-1.0299 1.88019,2.45713 1.88019,2.45717 -1.6737,1.80939 c -0.92056,0.99514 -3.41174,3.62457 -5.53599,5.84316 l -3.86224,4.03381 -1.44456,-1.88784 c -0.79449,-1.0383 -1.44455,-3.15716 -1.44455,-4.70854 v -2.82073 z"
         style="fill:#000000"
         inkscape:connector-curvature="0" />
      <path
         id="path5760"
         d="m -284.75437,5.0363357 1.01907,-0.823088 4.28775,1.9639103 c 2.35826,1.0801004 5.0174,2.573871 5.90921,3.3197775 l 1.62146,1.3558805 -1.46219,2.302503 -1.46219,2.302346 h -3.05085 c -1.67798,0 -4.1377,-0.760104 -5.46607,-1.689109 l -2.41525,-1.689265 V 8.9693769 c 0,-1.7104937 0.45857,-3.4803632 1.01906,-3.9330412 z"
         style="fill:#000000"
         inkscape:connector-curvature="0" />
      <path
         id="path5756"
         d="m -368.14622,189.65501 1.12927,3.67159 h 4.33686 4.33688 l 0.79069,-1.67194 0.7907,-1.67197 5.97554,1.03591 5.97554,1.03593 2.74292,-1.91841 2.74294,-1.91846 -0.38268,-5.94493 -0.38267,-5.94495 -6.24332,-2.91678 c -3.43381,-1.60422 -7.53548,-2.91974 -9.1148,-2.92336 l -2.87149,-0.006 -3.6082,2.4384 -3.60817,2.43842 -1.94879,3.63605 c -2.1898,4.08574 -2.27266,5.42177 -0.66122,10.66105 z"
         style="fill:#000000"
         inkscape:connector-curvature="0" />
      <path
         id="path5754"
         d="m -362.06122,178.75128 3.62657,-3.37474 h 3.79169 3.79173 l 0.77169,1.63182 0.77172,1.63185 h 2.27074 2.27075 l 1.41696,2.23121 1.41693,2.23122 -1.87702,2.03585 -1.87705,2.03582 -5.62362,-1.10209 -5.62362,-1.10206 -2.73111,2.49994 -2.73109,2.49992 -1.64594,-1.78515 c -0.90524,-0.98184 -1.64591,-2.74674 -1.64591,-3.92198 v -2.13682 z"
         style="fill:#000000"
         inkscape:connector-curvature="0" />
      <path
         id="path5752"
         d="m -328.04082,898.40574 2.68443,1.87757 5.43586,-0.97371 5.43586,-0.97371 4.83359,-3.22252 4.83359,-3.22271 3.36445,-5.22542 3.36447,-5.22525 -0.77841,-4.22921 -0.77842,-4.2292 -2.11681,-2.15385 -2.11683,-2.15384 -4.99463,0.976 c -2.74707,0.53685 -7.62779,2.10031 -10.84604,3.4743 l -5.85139,2.49816 -2.57708,5.70813 -2.57708,5.70813 v 4.74485 4.74486 z"
         style="fill:#000000"
         inkscape:connector-curvature="0" />
      <path
         id="path5750"
         d="m -324.06497,883.10689 0.79656,-2.92946 4.25881,-2.32551 4.2588,-2.32534 5.26214,-0.4566 5.26212,-0.45657 1.38064,2.78241 1.38062,2.78227 -3.01564,4.19508 c -3.78258,5.26182 -9.11077,8.7794 -15.23843,10.05989 l -4.74907,0.99246 -1.91127,-2.07289 -1.91125,-2.07293 1.71469,-2.62183 c 0.94308,-1.44189 2.07318,-3.93989 2.51128,-5.55098 z"
         style="fill:#000000"
         inkscape:connector-curvature="0" />
      <path
         id="path5748"
         d="m -318.91972,708.24149 3.06489,4.00538 h 3.84283 3.84287 l 4.3302,-2.36445 4.33023,-2.36447 v -5.81524 -5.81522 l -7.02303,-4.05898 c -3.86266,-2.23244 -7.79595,-4.05899 -8.74062,-4.05899 h -1.71764 l -2.49731,3.26364 -2.49733,3.26366 v 4.96964 4.96966 z"
         style="fill:#000000"
         inkscape:connector-curvature="0" />
      <path
         id="path4866"
         d="m -316.3738,694.30565 1.86486,-2.02262 4.255,2.63872 c 2.34026,1.45128 4.81235,2.63873 5.49352,2.63873 0.6812,0 1.55573,1.08023 1.94341,2.40049 l 0.70486,2.40052 -1.90912,2.49497 -1.90914,2.49495 h -3.73887 -3.73889 l -2.41524,-1.68924 -2.41523,-1.68922 v -3.82236 -3.82234 z"
         style="fill:#000000"
         inkscape:connector-curvature="0" />
    </g>
  </g>
</svg>
