<?xml version="1.0" encoding="UTF-8" standalone="no"?>
<svg
   xmlns:dc="http://purl.org/dc/elements/1.1/"
   xmlns:cc="http://creativecommons.org/ns#"
   xmlns:rdf="http://www.w3.org/1999/02/22-rdf-syntax-ns#"
   xmlns:svg="http://www.w3.org/2000/svg"
   xmlns="http://www.w3.org/2000/svg"
   xmlns:sodipodi="http://sodipodi.sourceforge.net/DTD/sodipodi-0.dtd"
   xmlns:inkscape="http://www.inkscape.org/namespaces/inkscape"
   sodipodi:docname="prusa_cover_back.svg"
   inkscape:version="0.92.4 (5da689c313, 2019-01-14)"
   version="1.1"
   id="svg3004"
   height="610mm"
   width="1220mm">
  <metadata
     id="metadata3829">
    <rdf:RDF>
      <cc:Work
         rdf:about="">
        <dc:format>image/svg+xml</dc:format>
        <dc:type
           rdf:resource="http://purl.org/dc/dcmitype/StillImage" />
        <dc:title></dc:title>
      </cc:Work>
    </rdf:RDF>
  </metadata>
  <sodipodi:namedview
     pagecolor="#ffffff"
     bordercolor="#666666"
     borderopacity="1"
     objecttolerance="10"
     gridtolerance="10"
     guidetolerance="10"
     inkscape:pageopacity="0"
     inkscape:pageshadow="2"
     inkscape:window-width="1920"
     inkscape:window-height="1017"
     id="namedview3827"
     showgrid="false"
     inkscape:zoom="0.33844734"
     inkscape:cx="1638.2614"
     inkscape:cy="1670.3485"
     inkscape:window-x="-8"
     inkscape:window-y="-8"
     inkscape:window-maximized="1"
     inkscape:current-layer="g3023"
     units="mm"
     inkscape:document-units="mm" />
  <desc
     id="desc3006">/home/chris/Downloads/FII9RI0IDZSH91H.dxf - scale = 1.105263</desc>
  <defs
     id="defs3008">
    <marker
       id="DistanceX"
       orient="auto"
       refX="0"
       refY="0"
       style="overflow:visible">
      <path
         d="M 3.2,-3.2 -3.2,3.2 M 0,-5.3333333 V 5.3333333"
         style="stroke:#000000;stroke-width:0.53333336"
         id="path3011"
         inkscape:connector-curvature="0" />
    </marker>
    <pattern
       height="8"
       id="Hatch"
       patternUnits="userSpaceOnUse"
       width="8"
       x="0"
       y="0">
      <path
         d="M8 4 l-4,4"
         linecap="square"
         stroke="#000000"
         stroke-width="0.25"
         id="path3014" />
      <path
         d="M6 2 l-4,4"
         linecap="square"
         stroke="#000000"
         stroke-width="0.25"
         id="path3016" />
      <path
         d="M4 0 l-4,4"
         linecap="square"
         stroke="#000000"
         stroke-width="0.25"
         id="path3018" />
    </pattern>
    <symbol
       id="*Model_Space" />
    <symbol
       id="*Paper_Space" />
    <symbol
       id="*Paper_Space0" />
    <symbol
       id="*U3">
      <path
         id="path5440"
         style="fill:none;stroke:#000000;stroke-width:1.06666672"
         d="m 147.40158,1141.4173 v -18.8976"
         inkscape:connector-curvature="0" />
      <path
         id="path5442"
         style="fill:none;stroke:#000000;stroke-width:1.06666672"
         d="M 128.50394,1103.6221 H -128.50394"
         inkscape:connector-curvature="0" />
      <path
         id="path5444"
         style="fill:none;stroke:#000000;stroke-width:1.06666672"
         d="M 147.40158,1141.4173 H -147.40158"
         inkscape:connector-curvature="0" />
      <path
         id="path5446"
         style="fill:none;stroke:#000000;stroke-width:1.06666672"
         d="m 147.40158,1122.5197 a 18.897637,18.897637 0 0 0 -18.89764,-18.8976"
         inkscape:connector-curvature="0" />
      <path
         id="path5448"
         style="fill:none;stroke:#000000;stroke-width:1.06666672"
         d="m -128.50394,1103.6221 a 18.897637,18.897637 0 0 0 -18.89764,18.8976"
         inkscape:connector-curvature="0" />
      <path
         id="path5450"
         style="fill:none;stroke:#000000;stroke-width:1.06666672"
         d="m -147.40158,1122.5197 v 18.8976"
         inkscape:connector-curvature="0" />
      <path
         id="path5452"
         style="fill:none;stroke:#000000;stroke-width:1.06666672"
         d="m -120.94489,1122.5197 a 7.559056,7.559056 0 1 0 -15.11811,0 7.559056,7.559056 0 1 0 15.11811,0 z"
         inkscape:connector-curvature="0" />
      <path
         id="path5454"
         style="fill:none;stroke:#000000;stroke-width:1.06666672"
         d="m 136.063,1122.5197 a 7.559056,7.559056 0 1 0 -15.11811,0 7.559056,7.559056 0 1 0 15.11811,0 z"
         inkscape:connector-curvature="0" />
    </symbol>
    <symbol
       id="*U1">
      <path
         id="path5423"
         style="fill:none;stroke:#000000;stroke-width:1.06666672"
         d="m 147.40158,1141.4173 v -18.8976"
         inkscape:connector-curvature="0" />
      <path
         id="path5425"
         style="fill:none;stroke:#000000;stroke-width:1.06666672"
         d="M 128.50394,1103.6221 H -128.50394"
         inkscape:connector-curvature="0" />
      <path
         id="path5427"
         style="fill:none;stroke:#000000;stroke-width:1.06666672"
         d="M 147.40158,1141.4173 H -147.40158"
         inkscape:connector-curvature="0" />
      <path
         id="path5429"
         style="fill:none;stroke:#000000;stroke-width:1.06666672"
         d="m 147.40158,1122.5197 a 18.897637,18.897637 0 0 0 -18.89764,-18.8976"
         inkscape:connector-curvature="0" />
      <path
         id="path5431"
         style="fill:none;stroke:#000000;stroke-width:1.06666672"
         d="m -128.50394,1103.6221 a 18.897637,18.897637 0 0 0 -18.89764,18.8976"
         inkscape:connector-curvature="0" />
      <path
         id="path5433"
         style="fill:none;stroke:#000000;stroke-width:1.06666672"
         d="m -147.40158,1122.5197 v 18.8976"
         inkscape:connector-curvature="0" />
      <path
         id="path5435"
         style="fill:none;stroke:#000000;stroke-width:1.06666672"
         d="m -120.94489,1122.5197 a 7.559056,7.559056 0 1 0 -15.11811,0 7.559056,7.559056 0 1 0 15.11811,0 z"
         inkscape:connector-curvature="0" />
      <path
         id="path5437"
         style="fill:none;stroke:#000000;stroke-width:1.06666672"
         d="m 136.063,1122.5197 a 7.559056,7.559056 0 1 0 -15.11811,0 7.559056,7.559056 0 1 0 15.11811,0 z"
         inkscape:connector-curvature="0" />
    </symbol>
    <symbol
       id="$PAPER_SPACE" />
    <symbol
       id="$MODEL_SPACE" />
    <pattern
       y="0"
       x="0"
       width="8"
       patternUnits="userSpaceOnUse"
       id="Hatch-5"
       height="8">
      <path
         id="path5414"
         stroke-width="0.25"
         stroke="#000000"
         linecap="square"
         d="M8 4 l-4,4" />
      <path
         id="path5416"
         stroke-width="0.25"
         stroke="#000000"
         linecap="square"
         d="M6 2 l-4,4" />
      <path
         id="path5418"
         stroke-width="0.25"
         stroke="#000000"
         linecap="square"
         d="M4 0 l-4,4" />
    </pattern>
    <marker
       style="overflow:visible"
       refY="0"
       refX="0"
       orient="auto"
       id="DistanceX-3">
      <path
         id="path5411"
         style="stroke:#000000;stroke-width:0.53333336"
         d="M 3.2,-3.2 -3.2,3.2 M 0,-5.3333333 V 5.3333333"
         inkscape:connector-curvature="0" />
    </marker>
    <symbol
       id="*U3-7">
      <path
         id="path6198"
         style="fill:none;stroke:#000000;stroke-width:1.06666672"
         d="m 14.740158,1124.4095 v -1.8898"
         inkscape:connector-curvature="0" />
      <path
         id="path6200"
         style="fill:none;stroke:#000000;stroke-width:1.06666672"
         d="M 12.850394,1120.63 H -12.850394"
         inkscape:connector-curvature="0" />
      <path
         id="path6202"
         style="fill:none;stroke:#000000;stroke-width:1.06666672"
         d="M 14.740158,1124.4095 H -14.740158"
         inkscape:connector-curvature="0" />
      <path
         id="path6204"
         style="fill:none;stroke:#000000;stroke-width:1.06666672"
         d="M 14.740158,1122.5197 A 1.8897643,1.8897643 0 0 0 12.850394,1120.63"
         inkscape:connector-curvature="0" />
      <path
         id="path6206"
         style="fill:none;stroke:#000000;stroke-width:1.06666672"
         d="m -12.850394,1120.63 a 1.8897643,1.8897643 0 0 0 -1.889764,1.8897"
         inkscape:connector-curvature="0" />
      <path
         id="path6208"
         style="fill:none;stroke:#000000;stroke-width:1.06666672"
         d="m -14.740158,1122.5197 v 1.8898"
         inkscape:connector-curvature="0" />
      <path
         id="path6210"
         style="fill:none;stroke:#000000;stroke-width:1.06666672"
         d="m -12.094489,1122.5197 a 0.7559056,0.7559056 0 1 0 -1.511811,0 0.7559056,0.7559056 0 1 0 1.511811,0 z"
         inkscape:connector-curvature="0" />
      <path
         id="path6212"
         style="fill:none;stroke:#000000;stroke-width:1.06666672"
         d="m 13.6063,1122.5197 a 0.7559056,0.7559056 0 1 0 -1.511811,0 0.7559056,0.7559056 0 1 0 1.511811,0 z"
         inkscape:connector-curvature="0" />
    </symbol>
    <symbol
       id="*U1-2">
      <path
         id="path6181"
         style="fill:none;stroke:#000000;stroke-width:1.06666672"
         d="m 14.740158,1124.4095 v -1.8898"
         inkscape:connector-curvature="0" />
      <path
         id="path6183"
         style="fill:none;stroke:#000000;stroke-width:1.06666672"
         d="M 12.850394,1120.63 H -12.850394"
         inkscape:connector-curvature="0" />
      <path
         id="path6185"
         style="fill:none;stroke:#000000;stroke-width:1.06666672"
         d="M 14.740158,1124.4095 H -14.740158"
         inkscape:connector-curvature="0" />
      <path
         id="path6187"
         style="fill:none;stroke:#000000;stroke-width:1.06666672"
         d="M 14.740158,1122.5197 A 1.8897643,1.8897643 0 0 0 12.850394,1120.63"
         inkscape:connector-curvature="0" />
      <path
         id="path6189"
         style="fill:none;stroke:#000000;stroke-width:1.06666672"
         d="m -12.850394,1120.63 a 1.8897643,1.8897643 0 0 0 -1.889764,1.8897"
         inkscape:connector-curvature="0" />
      <path
         id="path6191"
         style="fill:none;stroke:#000000;stroke-width:1.06666672"
         d="m -14.740158,1122.5197 v 1.8898"
         inkscape:connector-curvature="0" />
      <path
         id="path6193"
         style="fill:none;stroke:#000000;stroke-width:1.06666672"
         d="m -12.094489,1122.5197 a 0.7559056,0.7559056 0 1 0 -1.511811,0 0.7559056,0.7559056 0 1 0 1.511811,0 z"
         inkscape:connector-curvature="0" />
      <path
         id="path6195"
         style="fill:none;stroke:#000000;stroke-width:1.06666672"
         d="m 13.6063,1122.5197 a 0.7559056,0.7559056 0 1 0 -1.511811,0 0.7559056,0.7559056 0 1 0 1.511811,0 z"
         inkscape:connector-curvature="0" />
    </symbol>
    <symbol
       id="$PAPER_SPACE-1" />
    <symbol
       id="$MODEL_SPACE-9" />
    <pattern
       y="0"
       x="0"
       width="8"
       patternUnits="userSpaceOnUse"
       id="Hatch-2"
       height="8">
      <path
         id="path6172"
         stroke-width="0.25"
         stroke="#000000"
         linecap="square"
         d="M8 4 l-4,4" />
      <path
         id="path6174"
         stroke-width="0.25"
         stroke="#000000"
         linecap="square"
         d="M6 2 l-4,4" />
      <path
         id="path6176"
         stroke-width="0.25"
         stroke="#000000"
         linecap="square"
         d="M4 0 l-4,4" />
    </pattern>
    <marker
       style="overflow:visible"
       refY="0"
       refX="0"
       orient="auto"
       id="DistanceX-6">
      <path
         id="path6169"
         style="stroke:#000000;stroke-width:0.53333336"
         d="M 3.2,-3.2 -3.2,3.2 M 0,-5.3333333 V 5.3333333"
         inkscape:connector-curvature="0" />
    </marker>
    <symbol
       id="*U3-6">
      <path
         id="path6956"
         style="fill:none;stroke:#000000;stroke-width:1.06666672"
         d="m 29.480315,1126.2992 v -3.7795"
         inkscape:connector-curvature="0" />
      <path
         id="path6958"
         style="fill:none;stroke:#000000;stroke-width:1.06666672"
         d="M 25.700787,1118.7402 H -25.700787"
         inkscape:connector-curvature="0" />
      <path
         id="path6960"
         style="fill:none;stroke:#000000;stroke-width:1.06666672"
         d="m 29.480315,1126.2992 h -58.96063"
         inkscape:connector-curvature="0" />
      <path
         id="path6962"
         style="fill:none;stroke:#000000;stroke-width:1.06666672"
         d="m 29.480315,1122.5197 a 3.7795275,3.7795275 0 0 0 -3.779528,-3.7795"
         inkscape:connector-curvature="0" />
      <path
         id="path6964"
         style="fill:none;stroke:#000000;stroke-width:1.06666672"
         d="m -25.700787,1118.7402 a 3.7795275,3.7795275 0 0 0 -3.779528,3.7795"
         inkscape:connector-curvature="0" />
      <path
         id="path6966"
         style="fill:none;stroke:#000000;stroke-width:1.06666672"
         d="m -29.480315,1122.5197 v 3.7795"
         inkscape:connector-curvature="0" />
      <path
         id="path6968"
         style="fill:none;stroke:#000000;stroke-width:1.06666672"
         d="m -24.188976,1122.5197 a 1.5118112,1.5118112 0 1 0 -3.023622,0 1.5118112,1.5118112 0 1 0 3.023622,0 z"
         inkscape:connector-curvature="0" />
      <path
         id="path6970"
         style="fill:none;stroke:#000000;stroke-width:1.06666672"
         d="m 27.212598,1122.5197 a 1.5118112,1.5118112 0 1 0 -3.023622,0 1.5118112,1.5118112 0 1 0 3.023622,0 z"
         inkscape:connector-curvature="0" />
    </symbol>
    <symbol
       id="*U1-0">
      <path
         id="path6939"
         style="fill:none;stroke:#000000;stroke-width:1.06666672"
         d="m 29.480315,1126.2992 v -3.7795"
         inkscape:connector-curvature="0" />
      <path
         id="path6941"
         style="fill:none;stroke:#000000;stroke-width:1.06666672"
         d="M 25.700787,1118.7402 H -25.700787"
         inkscape:connector-curvature="0" />
      <path
         id="path6943"
         style="fill:none;stroke:#000000;stroke-width:1.06666672"
         d="m 29.480315,1126.2992 h -58.96063"
         inkscape:connector-curvature="0" />
      <path
         id="path6945"
         style="fill:none;stroke:#000000;stroke-width:1.06666672"
         d="m 29.480315,1122.5197 a 3.7795275,3.7795275 0 0 0 -3.779528,-3.7795"
         inkscape:connector-curvature="0" />
      <path
         id="path6947"
         style="fill:none;stroke:#000000;stroke-width:1.06666672"
         d="m -25.700787,1118.7402 a 3.7795275,3.7795275 0 0 0 -3.779528,3.7795"
         inkscape:connector-curvature="0" />
      <path
         id="path6949"
         style="fill:none;stroke:#000000;stroke-width:1.06666672"
         d="m -29.480315,1122.5197 v 3.7795"
         inkscape:connector-curvature="0" />
      <path
         id="path6951"
         style="fill:none;stroke:#000000;stroke-width:1.06666672"
         d="m -24.188976,1122.5197 a 1.5118112,1.5118112 0 1 0 -3.023622,0 1.5118112,1.5118112 0 1 0 3.023622,0 z"
         inkscape:connector-curvature="0" />
      <path
         id="path6953"
         style="fill:none;stroke:#000000;stroke-width:1.06666672"
         d="m 27.212598,1122.5197 a 1.5118112,1.5118112 0 1 0 -3.023622,0 1.5118112,1.5118112 0 1 0 3.023622,0 z"
         inkscape:connector-curvature="0" />
    </symbol>
    <symbol
       id="$PAPER_SPACE-6" />
    <symbol
       id="$MODEL_SPACE-3" />
    <pattern
       y="0"
       x="0"
       width="8"
       patternUnits="userSpaceOnUse"
       id="Hatch-9"
       height="8">
      <path
         id="path6930"
         stroke-width="0.25"
         stroke="#000000"
         linecap="square"
         d="M8 4 l-4,4" />
      <path
         id="path6932"
         stroke-width="0.25"
         stroke="#000000"
         linecap="square"
         d="M6 2 l-4,4" />
      <path
         id="path6934"
         stroke-width="0.25"
         stroke="#000000"
         linecap="square"
         d="M4 0 l-4,4" />
    </pattern>
    <marker
       style="overflow:visible"
       refY="0"
       refX="0"
       orient="auto"
       id="DistanceX-0">
      <path
         id="path6927"
         style="stroke:#000000;stroke-width:0.53333336"
         d="M 3.2,-3.2 -3.2,3.2 M 0,-5.3333333 V 5.3333333"
         inkscape:connector-curvature="0" />
    </marker>
    <symbol
       id="*U3-9">
      <path
         id="path7714"
         style="fill:none;stroke:#000000;stroke-width:1.06666672"
         d="m 147.40158,1141.4173 v -18.8976"
         inkscape:connector-curvature="0" />
      <path
         id="path7716"
         style="fill:none;stroke:#000000;stroke-width:1.06666672"
         d="M 128.50394,1103.6221 H -128.50394"
         inkscape:connector-curvature="0" />
      <path
         id="path7718"
         style="fill:none;stroke:#000000;stroke-width:1.06666672"
         d="M 147.40158,1141.4173 H -147.40158"
         inkscape:connector-curvature="0" />
      <path
         id="path7720"
         style="fill:none;stroke:#000000;stroke-width:1.06666672"
         d="m 147.40158,1122.5197 a 18.897637,18.897637 0 0 0 -18.89764,-18.8976"
         inkscape:connector-curvature="0" />
      <path
         id="path7722"
         style="fill:none;stroke:#000000;stroke-width:1.06666672"
         d="m -128.50394,1103.6221 a 18.897637,18.897637 0 0 0 -18.89764,18.8976"
         inkscape:connector-curvature="0" />
      <path
         id="path7724"
         style="fill:none;stroke:#000000;stroke-width:1.06666672"
         d="m -147.40158,1122.5197 v 18.8976"
         inkscape:connector-curvature="0" />
      <path
         id="path7726"
         style="fill:none;stroke:#000000;stroke-width:1.06666672"
         d="m -120.94489,1122.5197 a 7.559056,7.559056 0 1 0 -15.11811,0 7.559056,7.559056 0 1 0 15.11811,0 z"
         inkscape:connector-curvature="0" />
      <path
         id="path7728"
         style="fill:none;stroke:#000000;stroke-width:1.06666672"
         d="m 136.063,1122.5197 a 7.559056,7.559056 0 1 0 -15.11811,0 7.559056,7.559056 0 1 0 15.11811,0 z"
         inkscape:connector-curvature="0" />
    </symbol>
    <symbol
       id="*U1-7">
      <path
         id="path7697"
         style="fill:none;stroke:#000000;stroke-width:1.06666672"
         d="m 147.40158,1141.4173 v -18.8976"
         inkscape:connector-curvature="0" />
      <path
         id="path7699"
         style="fill:none;stroke:#000000;stroke-width:1.06666672"
         d="M 128.50394,1103.6221 H -128.50394"
         inkscape:connector-curvature="0" />
      <path
         id="path7701"
         style="fill:none;stroke:#000000;stroke-width:1.06666672"
         d="M 147.40158,1141.4173 H -147.40158"
         inkscape:connector-curvature="0" />
      <path
         id="path7703"
         style="fill:none;stroke:#000000;stroke-width:1.06666672"
         d="m 147.40158,1122.5197 a 18.897637,18.897637 0 0 0 -18.89764,-18.8976"
         inkscape:connector-curvature="0" />
      <path
         id="path7705"
         style="fill:none;stroke:#000000;stroke-width:1.06666672"
         d="m -128.50394,1103.6221 a 18.897637,18.897637 0 0 0 -18.89764,18.8976"
         inkscape:connector-curvature="0" />
      <path
         id="path7707"
         style="fill:none;stroke:#000000;stroke-width:1.06666672"
         d="m -147.40158,1122.5197 v 18.8976"
         inkscape:connector-curvature="0" />
      <path
         id="path7709"
         style="fill:none;stroke:#000000;stroke-width:1.06666672"
         d="m -120.94489,1122.5197 a 7.559056,7.559056 0 1 0 -15.11811,0 7.559056,7.559056 0 1 0 15.11811,0 z"
         inkscape:connector-curvature="0" />
      <path
         id="path7711"
         style="fill:none;stroke:#000000;stroke-width:1.06666672"
         d="m 136.063,1122.5197 a 7.559056,7.559056 0 1 0 -15.11811,0 7.559056,7.559056 0 1 0 15.11811,0 z"
         inkscape:connector-curvature="0" />
    </symbol>
    <symbol
       id="$PAPER_SPACE-8" />
    <symbol
       id="$MODEL_SPACE-1" />
    <pattern
       y="0"
       x="0"
       width="8"
       patternUnits="userSpaceOnUse"
       id="Hatch-6"
       height="8">
      <path
         id="path7688"
         stroke-width="0.25"
         stroke="#000000"
         linecap="square"
         d="M8 4 l-4,4" />
      <path
         id="path7690"
         stroke-width="0.25"
         stroke="#000000"
         linecap="square"
         d="M6 2 l-4,4" />
      <path
         id="path7692"
         stroke-width="0.25"
         stroke="#000000"
         linecap="square"
         d="M4 0 l-4,4" />
    </pattern>
    <marker
       style="overflow:visible"
       refY="0"
       refX="0"
       orient="auto"
       id="DistanceX-2">
      <path
         id="path7685"
         style="stroke:#000000;stroke-width:0.53333336"
         d="M 3.2,-3.2 -3.2,3.2 M 0,-5.3333333 V 5.3333333"
         inkscape:connector-curvature="0" />
    </marker>
    <marker
       style="overflow:visible"
       refY="0"
       refX="0"
       orient="auto"
       id="DistanceX-5">
      <path
         inkscape:connector-curvature="0"
         id="path3011-6"
         style="stroke:#000000;stroke-width:0.53333336"
         d="M 3.2,-3.2 -3.2,3.2 M 0,-5.3333333 V 5.3333333" />
    </marker>
    <pattern
       y="0"
       x="0"
       width="8"
       patternUnits="userSpaceOnUse"
       id="Hatch-29"
       height="8">
      <path
         id="path3014-1"
         stroke-width="0.25"
         stroke="#000000"
         linecap="square"
         d="M8 4 l-4,4" />
      <path
         id="path3016-2"
         stroke-width="0.25"
         stroke="#000000"
         linecap="square"
         d="M6 2 l-4,4" />
      <path
         id="path3018-7"
         stroke-width="0.25"
         stroke="#000000"
         linecap="square"
         d="M4 0 l-4,4" />
    </pattern>
    <symbol
       id="*Model_Space-0" />
    <symbol
       id="*Paper_Space-9" />
    <symbol
       id="*Paper_Space0-3" />
    <symbol
       id="*U3-60">
      <path
         inkscape:connector-curvature="0"
         d="m 147.40158,1141.4173 v -18.8976"
         style="fill:none;stroke:#000000;stroke-width:1.06666672"
         id="path5440-6" />
      <path
         inkscape:connector-curvature="0"
         d="M 128.50394,1103.6221 H -128.50394"
         style="fill:none;stroke:#000000;stroke-width:1.06666672"
         id="path5442-2" />
      <path
         inkscape:connector-curvature="0"
         d="M 147.40158,1141.4173 H -147.40158"
         style="fill:none;stroke:#000000;stroke-width:1.06666672"
         id="path5444-6" />
      <path
         inkscape:connector-curvature="0"
         d="m 147.40158,1122.5197 a 18.897637,18.897637 0 0 0 -18.89764,-18.8976"
         style="fill:none;stroke:#000000;stroke-width:1.06666672"
         id="path5446-1" />
      <path
         inkscape:connector-curvature="0"
         d="m -128.50394,1103.6221 a 18.897637,18.897637 0 0 0 -18.89764,18.8976"
         style="fill:none;stroke:#000000;stroke-width:1.06666672"
         id="path5448-8" />
      <path
         inkscape:connector-curvature="0"
         d="m -147.40158,1122.5197 v 18.8976"
         style="fill:none;stroke:#000000;stroke-width:1.06666672"
         id="path5450-7" />
      <path
         inkscape:connector-curvature="0"
         d="m -120.94489,1122.5197 a 7.559056,7.559056 0 1 0 -15.11811,0 7.559056,7.559056 0 1 0 15.11811,0 z"
         style="fill:none;stroke:#000000;stroke-width:1.06666672"
         id="path5452-9" />
      <path
         inkscape:connector-curvature="0"
         d="m 136.063,1122.5197 a 7.559056,7.559056 0 1 0 -15.11811,0 7.559056,7.559056 0 1 0 15.11811,0 z"
         style="fill:none;stroke:#000000;stroke-width:1.06666672"
         id="path5454-2" />
    </symbol>
    <symbol
       id="*U1-02">
      <path
         inkscape:connector-curvature="0"
         d="m 147.40158,1141.4173 v -18.8976"
         style="fill:none;stroke:#000000;stroke-width:1.06666672"
         id="path5423-3" />
      <path
         inkscape:connector-curvature="0"
         d="M 128.50394,1103.6221 H -128.50394"
         style="fill:none;stroke:#000000;stroke-width:1.06666672"
         id="path5425-7" />
      <path
         inkscape:connector-curvature="0"
         d="M 147.40158,1141.4173 H -147.40158"
         style="fill:none;stroke:#000000;stroke-width:1.06666672"
         id="path5427-5" />
      <path
         inkscape:connector-curvature="0"
         d="m 147.40158,1122.5197 a 18.897637,18.897637 0 0 0 -18.89764,-18.8976"
         style="fill:none;stroke:#000000;stroke-width:1.06666672"
         id="path5429-9" />
      <path
         inkscape:connector-curvature="0"
         d="m -128.50394,1103.6221 a 18.897637,18.897637 0 0 0 -18.89764,18.8976"
         style="fill:none;stroke:#000000;stroke-width:1.06666672"
         id="path5431-2" />
      <path
         inkscape:connector-curvature="0"
         d="m -147.40158,1122.5197 v 18.8976"
         style="fill:none;stroke:#000000;stroke-width:1.06666672"
         id="path5433-2" />
      <path
         inkscape:connector-curvature="0"
         d="m -120.94489,1122.5197 a 7.559056,7.559056 0 1 0 -15.11811,0 7.559056,7.559056 0 1 0 15.11811,0 z"
         style="fill:none;stroke:#000000;stroke-width:1.06666672"
         id="path5435-8" />
      <path
         inkscape:connector-curvature="0"
         d="m 136.063,1122.5197 a 7.559056,7.559056 0 1 0 -15.11811,0 7.559056,7.559056 0 1 0 15.11811,0 z"
         style="fill:none;stroke:#000000;stroke-width:1.06666672"
         id="path5437-9" />
    </symbol>
    <symbol
       id="$PAPER_SPACE-7" />
    <symbol
       id="$MODEL_SPACE-36" />
    <pattern
       height="8"
       id="Hatch-5-1"
       patternUnits="userSpaceOnUse"
       width="8"
       x="0"
       y="0">
      <path
         d="M8 4 l-4,4"
         linecap="square"
         stroke="#000000"
         stroke-width="0.25"
         id="path5414-2" />
      <path
         d="M6 2 l-4,4"
         linecap="square"
         stroke="#000000"
         stroke-width="0.25"
         id="path5416-9" />
      <path
         d="M4 0 l-4,4"
         linecap="square"
         stroke="#000000"
         stroke-width="0.25"
         id="path5418-3" />
    </pattern>
    <marker
       id="DistanceX-3-1"
       orient="auto"
       refX="0"
       refY="0"
       style="overflow:visible">
      <path
         inkscape:connector-curvature="0"
         d="M 3.2,-3.2 -3.2,3.2 M 0,-5.3333333 V 5.3333333"
         style="stroke:#000000;stroke-width:0.53333336"
         id="path5411-9" />
    </marker>
    <symbol
       id="*U3-7-4">
      <path
         inkscape:connector-curvature="0"
         d="m 14.740158,1124.4095 v -1.8898"
         style="fill:none;stroke:#000000;stroke-width:1.06666672"
         id="path6198-7" />
      <path
         inkscape:connector-curvature="0"
         d="M 12.850394,1120.63 H -12.850394"
         style="fill:none;stroke:#000000;stroke-width:1.06666672"
         id="path6200-8" />
      <path
         inkscape:connector-curvature="0"
         d="M 14.740158,1124.4095 H -14.740158"
         style="fill:none;stroke:#000000;stroke-width:1.06666672"
         id="path6202-4" />
      <path
         inkscape:connector-curvature="0"
         d="M 14.740158,1122.5197 A 1.8897643,1.8897643 0 0 0 12.850394,1120.63"
         style="fill:none;stroke:#000000;stroke-width:1.06666672"
         id="path6204-5" />
      <path
         inkscape:connector-curvature="0"
         d="m -12.850394,1120.63 a 1.8897643,1.8897643 0 0 0 -1.889764,1.8897"
         style="fill:none;stroke:#000000;stroke-width:1.06666672"
         id="path6206-0" />
      <path
         inkscape:connector-curvature="0"
         d="m -14.740158,1122.5197 v 1.8898"
         style="fill:none;stroke:#000000;stroke-width:1.06666672"
         id="path6208-3" />
      <path
         inkscape:connector-curvature="0"
         d="m -12.094489,1122.5197 a 0.7559056,0.7559056 0 1 0 -1.511811,0 0.7559056,0.7559056 0 1 0 1.511811,0 z"
         style="fill:none;stroke:#000000;stroke-width:1.06666672"
         id="path6210-6" />
      <path
         inkscape:connector-curvature="0"
         d="m 13.6063,1122.5197 a 0.7559056,0.7559056 0 1 0 -1.511811,0 0.7559056,0.7559056 0 1 0 1.511811,0 z"
         style="fill:none;stroke:#000000;stroke-width:1.06666672"
         id="path6212-1" />
    </symbol>
    <symbol
       id="*U1-2-0">
      <path
         inkscape:connector-curvature="0"
         d="m 14.740158,1124.4095 v -1.8898"
         style="fill:none;stroke:#000000;stroke-width:1.06666672"
         id="path6181-6" />
      <path
         inkscape:connector-curvature="0"
         d="M 12.850394,1120.63 H -12.850394"
         style="fill:none;stroke:#000000;stroke-width:1.06666672"
         id="path6183-3" />
      <path
         inkscape:connector-curvature="0"
         d="M 14.740158,1124.4095 H -14.740158"
         style="fill:none;stroke:#000000;stroke-width:1.06666672"
         id="path6185-2" />
      <path
         inkscape:connector-curvature="0"
         d="M 14.740158,1122.5197 A 1.8897643,1.8897643 0 0 0 12.850394,1120.63"
         style="fill:none;stroke:#000000;stroke-width:1.06666672"
         id="path6187-0" />
      <path
         inkscape:connector-curvature="0"
         d="m -12.850394,1120.63 a 1.8897643,1.8897643 0 0 0 -1.889764,1.8897"
         style="fill:none;stroke:#000000;stroke-width:1.06666672"
         id="path6189-6" />
      <path
         inkscape:connector-curvature="0"
         d="m -14.740158,1122.5197 v 1.8898"
         style="fill:none;stroke:#000000;stroke-width:1.06666672"
         id="path6191-1" />
      <path
         inkscape:connector-curvature="0"
         d="m -12.094489,1122.5197 a 0.7559056,0.7559056 0 1 0 -1.511811,0 0.7559056,0.7559056 0 1 0 1.511811,0 z"
         style="fill:none;stroke:#000000;stroke-width:1.06666672"
         id="path6193-5" />
      <path
         inkscape:connector-curvature="0"
         d="m 13.6063,1122.5197 a 0.7559056,0.7559056 0 1 0 -1.511811,0 0.7559056,0.7559056 0 1 0 1.511811,0 z"
         style="fill:none;stroke:#000000;stroke-width:1.06666672"
         id="path6195-5" />
    </symbol>
    <symbol
       id="$PAPER_SPACE-1-4" />
    <symbol
       id="$MODEL_SPACE-9-7" />
    <pattern
       height="8"
       id="Hatch-2-6"
       patternUnits="userSpaceOnUse"
       width="8"
       x="0"
       y="0">
      <path
         d="M8 4 l-4,4"
         linecap="square"
         stroke="#000000"
         stroke-width="0.25"
         id="path6172-5" />
      <path
         d="M6 2 l-4,4"
         linecap="square"
         stroke="#000000"
         stroke-width="0.25"
         id="path6174-6" />
      <path
         d="M4 0 l-4,4"
         linecap="square"
         stroke="#000000"
         stroke-width="0.25"
         id="path6176-9" />
    </pattern>
    <marker
       id="DistanceX-6-3"
       orient="auto"
       refX="0"
       refY="0"
       style="overflow:visible">
      <path
         inkscape:connector-curvature="0"
         d="M 3.2,-3.2 -3.2,3.2 M 0,-5.3333333 V 5.3333333"
         style="stroke:#000000;stroke-width:0.53333336"
         id="path6169-7" />
    </marker>
    <symbol
       id="*U3-6-4">
      <path
         inkscape:connector-curvature="0"
         d="m 29.480315,1126.2992 v -3.7795"
         style="fill:none;stroke:#000000;stroke-width:1.06666672"
         id="path6956-5" />
      <path
         inkscape:connector-curvature="0"
         d="M 25.700787,1118.7402 H -25.700787"
         style="fill:none;stroke:#000000;stroke-width:1.06666672"
         id="path6958-2" />
      <path
         inkscape:connector-curvature="0"
         d="m 29.480315,1126.2992 h -58.96063"
         style="fill:none;stroke:#000000;stroke-width:1.06666672"
         id="path6960-5" />
      <path
         inkscape:connector-curvature="0"
         d="m 29.480315,1122.5197 a 3.7795275,3.7795275 0 0 0 -3.779528,-3.7795"
         style="fill:none;stroke:#000000;stroke-width:1.06666672"
         id="path6962-4" />
      <path
         inkscape:connector-curvature="0"
         d="m -25.700787,1118.7402 a 3.7795275,3.7795275 0 0 0 -3.779528,3.7795"
         style="fill:none;stroke:#000000;stroke-width:1.06666672"
         id="path6964-7" />
      <path
         inkscape:connector-curvature="0"
         d="m -29.480315,1122.5197 v 3.7795"
         style="fill:none;stroke:#000000;stroke-width:1.06666672"
         id="path6966-4" />
      <path
         inkscape:connector-curvature="0"
         d="m -24.188976,1122.5197 a 1.5118112,1.5118112 0 1 0 -3.023622,0 1.5118112,1.5118112 0 1 0 3.023622,0 z"
         style="fill:none;stroke:#000000;stroke-width:1.06666672"
         id="path6968-4" />
      <path
         inkscape:connector-curvature="0"
         d="m 27.212598,1122.5197 a 1.5118112,1.5118112 0 1 0 -3.023622,0 1.5118112,1.5118112 0 1 0 3.023622,0 z"
         style="fill:none;stroke:#000000;stroke-width:1.06666672"
         id="path6970-3" />
    </symbol>
    <symbol
       id="*U1-0-0">
      <path
         inkscape:connector-curvature="0"
         d="m 29.480315,1126.2992 v -3.7795"
         style="fill:none;stroke:#000000;stroke-width:1.06666672"
         id="path6939-7" />
      <path
         inkscape:connector-curvature="0"
         d="M 25.700787,1118.7402 H -25.700787"
         style="fill:none;stroke:#000000;stroke-width:1.06666672"
         id="path6941-8" />
      <path
         inkscape:connector-curvature="0"
         d="m 29.480315,1126.2992 h -58.96063"
         style="fill:none;stroke:#000000;stroke-width:1.06666672"
         id="path6943-6" />
      <path
         inkscape:connector-curvature="0"
         d="m 29.480315,1122.5197 a 3.7795275,3.7795275 0 0 0 -3.779528,-3.7795"
         style="fill:none;stroke:#000000;stroke-width:1.06666672"
         id="path6945-8" />
      <path
         inkscape:connector-curvature="0"
         d="m -25.700787,1118.7402 a 3.7795275,3.7795275 0 0 0 -3.779528,3.7795"
         style="fill:none;stroke:#000000;stroke-width:1.06666672"
         id="path6947-8" />
      <path
         inkscape:connector-curvature="0"
         d="m -29.480315,1122.5197 v 3.7795"
         style="fill:none;stroke:#000000;stroke-width:1.06666672"
         id="path6949-4" />
      <path
         inkscape:connector-curvature="0"
         d="m -24.188976,1122.5197 a 1.5118112,1.5118112 0 1 0 -3.023622,0 1.5118112,1.5118112 0 1 0 3.023622,0 z"
         style="fill:none;stroke:#000000;stroke-width:1.06666672"
         id="path6951-3" />
      <path
         inkscape:connector-curvature="0"
         d="m 27.212598,1122.5197 a 1.5118112,1.5118112 0 1 0 -3.023622,0 1.5118112,1.5118112 0 1 0 3.023622,0 z"
         style="fill:none;stroke:#000000;stroke-width:1.06666672"
         id="path6953-1" />
    </symbol>
    <symbol
       id="$PAPER_SPACE-6-4" />
    <symbol
       id="$MODEL_SPACE-3-9" />
    <pattern
       height="8"
       id="Hatch-9-2"
       patternUnits="userSpaceOnUse"
       width="8"
       x="0"
       y="0">
      <path
         d="M8 4 l-4,4"
         linecap="square"
         stroke="#000000"
         stroke-width="0.25"
         id="path6930-0" />
      <path
         d="M6 2 l-4,4"
         linecap="square"
         stroke="#000000"
         stroke-width="0.25"
         id="path6932-6" />
      <path
         d="M4 0 l-4,4"
         linecap="square"
         stroke="#000000"
         stroke-width="0.25"
         id="path6934-8" />
    </pattern>
    <marker
       id="DistanceX-0-9"
       orient="auto"
       refX="0"
       refY="0"
       style="overflow:visible">
      <path
         inkscape:connector-curvature="0"
         d="M 3.2,-3.2 -3.2,3.2 M 0,-5.3333333 V 5.3333333"
         style="stroke:#000000;stroke-width:0.53333336"
         id="path6927-2" />
    </marker>
    <symbol
       id="*U3-9-6">
      <path
         d="m 147.40158,1141.4173 v -18.8976"
         style="fill:none;stroke:#000000;stroke-width:1.06666672"
         id="path7714-6"
         inkscape:connector-curvature="0" />
      <path
         d="M 128.50394,1103.6221 H -128.50394"
         style="fill:none;stroke:#000000;stroke-width:1.06666672"
         id="path7716-4"
         inkscape:connector-curvature="0" />
      <path
         d="M 147.40158,1141.4173 H -147.40158"
         style="fill:none;stroke:#000000;stroke-width:1.06666672"
         id="path7718-9"
         inkscape:connector-curvature="0" />
      <path
         d="m 147.40158,1122.5197 a 18.897637,18.897637 0 0 0 -18.89764,-18.8976"
         style="fill:none;stroke:#000000;stroke-width:1.06666672"
         id="path7720-5"
         inkscape:connector-curvature="0" />
      <path
         d="m -128.50394,1103.6221 a 18.897637,18.897637 0 0 0 -18.89764,18.8976"
         style="fill:none;stroke:#000000;stroke-width:1.06666672"
         id="path7722-0"
         inkscape:connector-curvature="0" />
      <path
         d="m -147.40158,1122.5197 v 18.8976"
         style="fill:none;stroke:#000000;stroke-width:1.06666672"
         id="path7724-4"
         inkscape:connector-curvature="0" />
      <path
         d="m -120.94489,1122.5197 a 7.559056,7.559056 0 1 0 -15.11811,0 7.559056,7.559056 0 1 0 15.11811,0 z"
         style="fill:none;stroke:#000000;stroke-width:1.06666672"
         id="path7726-8"
         inkscape:connector-curvature="0" />
      <path
         d="m 136.063,1122.5197 a 7.559056,7.559056 0 1 0 -15.11811,0 7.559056,7.559056 0 1 0 15.11811,0 z"
         style="fill:none;stroke:#000000;stroke-width:1.06666672"
         id="path7728-7"
         inkscape:connector-curvature="0" />
    </symbol>
    <symbol
       id="*U1-7-1">
      <path
         d="m 147.40158,1141.4173 v -18.8976"
         style="fill:none;stroke:#000000;stroke-width:1.06666672"
         id="path7697-7"
         inkscape:connector-curvature="0" />
      <path
         d="M 128.50394,1103.6221 H -128.50394"
         style="fill:none;stroke:#000000;stroke-width:1.06666672"
         id="path7699-2"
         inkscape:connector-curvature="0" />
      <path
         d="M 147.40158,1141.4173 H -147.40158"
         style="fill:none;stroke:#000000;stroke-width:1.06666672"
         id="path7701-7"
         inkscape:connector-curvature="0" />
      <path
         d="m 147.40158,1122.5197 a 18.897637,18.897637 0 0 0 -18.89764,-18.8976"
         style="fill:none;stroke:#000000;stroke-width:1.06666672"
         id="path7703-2"
         inkscape:connector-curvature="0" />
      <path
         d="m -128.50394,1103.6221 a 18.897637,18.897637 0 0 0 -18.89764,18.8976"
         style="fill:none;stroke:#000000;stroke-width:1.06666672"
         id="path7705-2"
         inkscape:connector-curvature="0" />
      <path
         d="m -147.40158,1122.5197 v 18.8976"
         style="fill:none;stroke:#000000;stroke-width:1.06666672"
         id="path7707-6"
         inkscape:connector-curvature="0" />
      <path
         d="m -120.94489,1122.5197 a 7.559056,7.559056 0 1 0 -15.11811,0 7.559056,7.559056 0 1 0 15.11811,0 z"
         style="fill:none;stroke:#000000;stroke-width:1.06666672"
         id="path7709-1"
         inkscape:connector-curvature="0" />
      <path
         d="m 136.063,1122.5197 a 7.559056,7.559056 0 1 0 -15.11811,0 7.559056,7.559056 0 1 0 15.11811,0 z"
         style="fill:none;stroke:#000000;stroke-width:1.06666672"
         id="path7711-0"
         inkscape:connector-curvature="0" />
    </symbol>
    <symbol
       id="$PAPER_SPACE-8-6" />
    <symbol
       id="$MODEL_SPACE-1-1" />
    <pattern
       height="8"
       id="Hatch-6-5"
       patternUnits="userSpaceOnUse"
       width="8"
       x="0"
       y="0">
      <path
         d="M8 4 l-4,4"
         linecap="square"
         stroke="#000000"
         stroke-width="0.25"
         id="path7688-9" />
      <path
         d="M6 2 l-4,4"
         linecap="square"
         stroke="#000000"
         stroke-width="0.25"
         id="path7690-4" />
      <path
         d="M4 0 l-4,4"
         linecap="square"
         stroke="#000000"
         stroke-width="0.25"
         id="path7692-9" />
    </pattern>
    <marker
       id="DistanceX-2-0"
       orient="auto"
       refX="0"
       refY="0"
       style="overflow:visible">
      <path
         d="M 3.2,-3.2 -3.2,3.2 M 0,-5.3333333 V 5.3333333"
         style="stroke:#000000;stroke-width:0.53333336"
         id="path7685-9"
         inkscape:connector-curvature="0" />
    </marker>
    <symbol
       id="*Paper_Space0-9" />
    <symbol
       id="*Paper_Space-5" />
    <symbol
       id="*Model_Space-7" />
    <pattern
       height="8"
       id="Hatch-23"
       patternUnits="userSpaceOnUse"
       width="8"
       x="0"
       y="0">
      <path
         d="M8 4 l-4,4"
         linecap="square"
         stroke="#000000"
         stroke-width="0.25"
         id="path8465" />
      <path
         d="M6 2 l-4,4"
         linecap="square"
         stroke="#000000"
         stroke-width="0.25"
         id="path8467" />
      <path
         d="M4 0 l-4,4"
         linecap="square"
         stroke="#000000"
         stroke-width="0.25"
         id="path8469" />
    </pattern>
    <marker
       id="DistanceX-20"
       orient="auto"
       refX="0"
       refY="0"
       style="overflow:visible">
      <path
         d="M 3.2,-3.2 -3.2,3.2 M 0,-5.3333333 V 5.3333333"
         style="stroke:#000000;stroke-width:0.53333336"
         id="path8462"
         inkscape:connector-curvature="0" />
    </marker>
    <filter
       id="filter8106"
       inkscape:label="Outline"
       inkscape:menu="Morphology"
       inkscape:menu-tooltip="Adds a glowing blur and removes the shape"
       style="color-interpolation-filters:sRGB">
      <feGaussianBlur
         id="feGaussianBlur8108"
         stdDeviation="5"
         result="result2" />
      <feColorMatrix
         id="feColorMatrix8110"
         values="1 0 0 0 0 0 1 0 0 0 0 0 1 0 0 0 0 0 10 -2 "
         result="result1" />
      <feComposite
         id="feComposite8112"
         in2="result1"
         operator="arithmetic"
         in="SourceGraphic"
         k2="-1"
         k3="1"
         k1="0"
         k4="0" />
    </filter>
  </defs>
  <g
     inkscape:groupmode="layer"
     inkscape:label="0"
     id="g3023"
     transform="translate(0,1182.992)"
     style="display:inline">
    <rect
       id="rect290"
       width="1991.717"
       height="1825.9867"
       x="11.515053"
       y="-1173.9777"
       style="fill:none;stroke:#ff0000;stroke-width:2.51755452;stroke-miterlimit:4;stroke-dasharray:none;stroke-opacity:1" />
    <path
       inkscape:connector-curvature="0"
       id="path3753"
       style="fill:none;stroke:#231f20;stroke-width:3.99999976;stroke-linecap:butt;stroke-linejoin:miter;stroke-miterlimit:10;stroke-dasharray:none;stroke-opacity:1"
       d="m 1670.5645,-875.84397 c -39.764,0 -72,-32.236 -72,-72 0,-39.764 32.236,-72.00003 72,-72.00003 39.7639,0 72,32.23603 72,72.00003 0,39.764 -32.2361,72 -72,72 z m 0,1317.3333 c -39.764,0 -72,-32.236 -72,-72 0,-39.764 32.236,-72 72,-72 39.7639,0 72,32.236 72,72 0,39.764 -32.2361,72 -72,72 z m 297.3333,-1012.19998 v -40.83466 h 24 v -24 h -24 V -1163.844 H 47.897773 v 528.29869 h -24 v 24 h 24 v 40.83466 h 26.152 v -6.99333 h 14.3626 v 6.99333 h 35.485397 v 15.116 H 88.412373 v 6.99333 h -14.3626 v -6.99333 h -26.152 v 39.05068 h -24.64 v 24 h 24.64 v 456.672005 h -24 v 24 h 24 v 40.8333 h 26.152 v -6.992 h 14.3626 v 6.992 h 35.485397 v 15.1174 H 88.412373 v 6.9933 h -14.3626 v -6.9933 h -26.152 v 39.0506 h -24.64 v 23.999995 h 24.64 v 510.36 H 640.19774 v 24 h 24 v -24 h 40.83334 v -30.152 h -6.99334 v -14.3627 h 6.99334 v -35.4853 h 15.11731 v 35.4853 h 6.99202 v 14.3627 h -6.99202 v 30.152 h 39.04933 v 24.64 h 24 v -24.64 h 456.67208 v 24 h 24 v -24 h 40.8333 v -30.152 h -6.992 v -14.3627 h 6.992 v -35.4853 h 15.1174 v 35.4853 h 6.9933 v 14.3627 h -6.9933 v 30.152 h 39.0493 v 24.64 h 24 v -24.64 h 585.028 v -510.36 h 23.36 V 83.129335 h -23.36 v -39.0506 h -26.152 v 6.9933 h -14.3627 v -6.9933 h -35.4853 v -15.1174 h 35.4853 v -6.992 h 14.3627 v 6.992 h 26.152 v -40.8333 h 24 v -24 h -24 V -492.54397 h 23.36 v -24 h -23.36 v -39.05068 h -26.152 v 6.99333 h -14.3627 v -6.99333 h -35.4853 v -15.116 h 35.4853 v -6.99333 h 14.3627 v 6.99333 z" />
  </g>
</svg>
